<svg xmlns="http://www.w3.org/2000/svg" xmlns:xlink="http://www.w3.org/1999/xlink" viewBox="0 0 990.26 645.69"><defs><style>.cls-1{fill:#fff;}.cls-2,.cls-3{fill:#424242;}.cls-2{opacity:0.25;}.cls-4{fill:#312e34;}.cls-5{fill:#616161;}.cls-6{fill:url(#linear-gradient);}.cls-7{fill:#ffb300;}.cls-8{fill:#ffa000;}.cls-9{fill:#ffef80;}.cls-10{fill:#ff7d21;}.cls-11{fill:#ffcb5d;}.cls-12{fill:url(#linear-gradient-2);}.cls-13{fill:#1ab8ff;}.cls-14{fill:#f2f8fd;}.cls-15{fill:#deeee9;}.cls-16{fill:url(#linear-gradient-3);}.cls-17{fill:url(#linear-gradient-4);}.cls-18{fill:none;}.cls-19{fill:#1ae5ff;}.cls-20{fill:url(#linear-gradient-5);}.cls-21{fill:url(#linear-gradient-6);}.cls-22{fill:url(#linear-gradient-7);}.cls-23{fill:url(#linear-gradient-8);}.cls-24{fill:url(#linear-gradient-9);}.cls-25{fill:#db4fff;}.cls-26{fill:url(#linear-gradient-10);}.cls-27{fill:url(#linear-gradient-11);}.cls-28{fill:url(#linear-gradient-12);}.cls-29{fill:url(#linear-gradient-13);}.cls-30{fill:url(#linear-gradient-14);}.cls-31{fill:url(#linear-gradient-15);}.cls-32{fill:#ffcc80;}.cls-33{fill:url(#linear-gradient-16);}.cls-34{fill:url(#linear-gradient-17);}.cls-35{fill:url(#linear-gradient-18);}.cls-36{fill:url(#linear-gradient-19);}.cls-37{fill:#ff8a65;}.cls-38{fill:#fec800;}.cls-39{fill:url(#linear-gradient-20);}.cls-40{fill:#f1eeeb;}.cls-41{fill:url(#linear-gradient-21);}.cls-42{fill:url(#linear-gradient-22);}.cls-43{fill:url(#linear-gradient-23);}.cls-44{fill:url(#linear-gradient-24);}.cls-45{fill:#00acc1;}.cls-46{fill:#455a64;}.cls-47{fill:#3c0aff;}.cls-48{fill:#fbe3a7;}.cls-49{fill:url(#linear-gradient-25);}.cls-50{fill:url(#linear-gradient-26);}.cls-51{fill:url(#linear-gradient-27);}.cls-52{fill:url(#linear-gradient-28);}.cls-53{fill:url(#linear-gradient-29);}</style><linearGradient id="linear-gradient" x1="623.08" y1="89.7" x2="588.41" y2="877.89" gradientTransform="matrix(-1, 0, 0, 1, 990.24, 0)" gradientUnits="userSpaceOnUse"><stop offset="0" stop-color="#3cd8b1"/><stop offset="1" stop-color="#b84fff"/></linearGradient><linearGradient id="linear-gradient-2" x1="224.81" y1="820.87" x2="196.38" y2="482.27" gradientTransform="matrix(-1, 0, 0, 1, 990.24, 0)" gradientUnits="userSpaceOnUse"><stop offset="0" stop-color="#00acc1"/><stop offset="1" stop-color="#4de4ad"/></linearGradient><linearGradient id="linear-gradient-3" x1="834.34" y1="612.83" x2="732.39" y2="213.98" xlink:href="#linear-gradient-2"/><linearGradient id="linear-gradient-4" x1="718.16" y1="698.92" x2="630.23" y2="318.96" gradientTransform="matrix(-1, 0, 0, 1, 990.24, 0)" gradientUnits="userSpaceOnUse"><stop offset="0" stop-color="#3c0aff"/><stop offset="1" stop-color="#b84fff"/></linearGradient><linearGradient id="linear-gradient-5" x1="274.3" y1="408.54" x2="256.05" y2="294.06" gradientTransform="matrix(-1, 0, 0, 1, 990.24, 0)" gradientUnits="userSpaceOnUse"><stop offset="0" stop-color="#3949ab"/><stop offset="1" stop-color="#7986ff"/></linearGradient><linearGradient id="linear-gradient-6" x1="356.72" y1="388.49" x2="340.96" y2="300.55" gradientTransform="matrix(-1, 0, 0, 1, 990.24, 0)" gradientUnits="userSpaceOnUse"><stop offset="0" stop-color="#0067ff"/><stop offset="1" stop-color="#36ffff"/></linearGradient><linearGradient id="linear-gradient-7" x1="299.6" y1="380.05" x2="310.38" y2="299.58" xlink:href="#linear-gradient-2"/><linearGradient id="linear-gradient-8" x1="381.5" y1="636.62" x2="233.94" y2="307.71" gradientTransform="matrix(1, 0, 0, -1, 354.21, 981.16)" xlink:href="#linear-gradient-6"/><linearGradient id="linear-gradient-9" x1="888.54" y1="710.46" x2="863.35" y2="559.34" xlink:href="#linear-gradient-2"/><linearGradient id="linear-gradient-10" x1="901.06" y1="212.62" x2="920.97" y2="212.62" gradientTransform="matrix(-1, 0, 0, 1, 990.24, 0)" gradientUnits="userSpaceOnUse"><stop offset="0" stop-color="#1ae5ff"/><stop offset="1" stop-color="#eaeeee"/></linearGradient><linearGradient id="linear-gradient-11" x1="726.45" y1="188.81" x2="738.06" y2="188.81" xlink:href="#linear-gradient-10"/><linearGradient id="linear-gradient-12" x1="148.2" y1="447.81" x2="159.82" y2="447.81" xlink:href="#linear-gradient-10"/><linearGradient id="linear-gradient-13" x1="960.38" y1="380.61" x2="971.99" y2="380.61" xlink:href="#linear-gradient-10"/><linearGradient id="linear-gradient-14" x1="412.79" y1="209.88" x2="424.41" y2="209.88" xlink:href="#linear-gradient-10"/><linearGradient id="linear-gradient-15" x1="529.95" y1="274.45" x2="570.33" y2="274.45" gradientTransform="translate(-85.91)" gradientUnits="userSpaceOnUse"><stop offset="0" stop-color="#fe9300"/><stop offset="1" stop-color="#fec800"/></linearGradient><linearGradient id="linear-gradient-16" x1="558.48" y1="179.66" x2="575.27" y2="369.43" xlink:href="#linear-gradient-15"/><linearGradient id="linear-gradient-17" x1="576.7" y1="178.04" x2="593.5" y2="367.81" xlink:href="#linear-gradient-15"/><linearGradient id="linear-gradient-18" x1="517.45" y1="183.29" x2="534.25" y2="373.06" xlink:href="#linear-gradient-15"/><linearGradient id="linear-gradient-19" x1="498.57" y1="184.96" x2="515.37" y2="374.73" xlink:href="#linear-gradient-15"/><linearGradient id="linear-gradient-20" x1="362.8" y1="598.86" x2="529.77" y2="419.4" xlink:href="#linear-gradient-4"/><linearGradient id="linear-gradient-21" x1="447.18" y1="526.48" x2="449.5" y2="387.53" gradientTransform="matrix(-1, 0, 0, 1, 990.24, 0)" xlink:href="#linear-gradient-15"/><linearGradient id="linear-gradient-22" x1="514.22" y1="466.38" x2="837.23" y2="466.38" gradientTransform="matrix(-1, 0, 0, 1, 990.24, 0)" xlink:href="#linear-gradient-15"/><linearGradient id="linear-gradient-23" x1="386.7" y1="445.9" x2="371.09" y2="559.81" xlink:href="#linear-gradient-4"/><linearGradient id="linear-gradient-24" x1="192.63" y1="656.62" x2="494.61" y2="503.14" xlink:href="#linear-gradient-2"/><linearGradient id="linear-gradient-25" x1="714.53" y1="37.77" x2="724.28" y2="23.46" gradientTransform="translate(-370.53)" xlink:href="#linear-gradient-2"/><linearGradient id="linear-gradient-26" x1="717.24" y1="5.71" x2="592.8" y2="57.98" gradientTransform="translate(-370.53)" xlink:href="#linear-gradient-4"/><linearGradient id="linear-gradient-27" x1="674.48" y1="63.65" x2="708.68" y2="63.65" gradientTransform="translate(-370.53)" xlink:href="#linear-gradient-2"/><linearGradient id="linear-gradient-28" x1="666.88" y1="65.03" x2="696" y2="65.03" gradientTransform="translate(-370.53)" xlink:href="#linear-gradient-2"/><linearGradient id="linear-gradient-29" x1="714.81" y1="-0.08" x2="590.37" y2="52.18" gradientTransform="translate(-370.53)" xlink:href="#linear-gradient-4"/></defs><title>bookShop-01</title><g id="BACKGROUND"><rect class="cls-1" x="245.12" y="50.4" width="500" height="500"/><rect class="cls-1" x="245.12" y="50.4" width="500" height="500"/></g><g id="OBJECTS"><path class="cls-2" d="M990.24,594.17c1.39,12.62-68.59,31.16-110.46,39.83-169.28,35-220.8-20.59-432-13.28C315.9,625.29,250,627.57,212.89,634c-18.13,3.14-67.11,12.25-127.32-.16-38.72-8-78.19-24.07-76.94-29.46,1.06-4.57,31.12.14,61.28,2,77,4.85,129-10.27,173.62-18.75,62.92-12,94.42-7.56,251.59-4.46C832.63,589.89,988.2,575.52,990.24,594.17Z" transform="translate(0 0)"/><path class="cls-3" d="M464.75,234.34c-29.84,0-56.93,3.79-77,10-20.08-6.17-47.18-10-77-10s-56.81,3.78-76.89,9.93V113.85H541.63V244.27C521.56,238.12,494.52,234.34,464.75,234.34Z" transform="translate(0 0)"/><path class="cls-4" d="M541.63,196.73c-126.3-40.88-257.11-53.45-307.79-57V113.85H541.63Z" transform="translate(0 0)"/><rect class="cls-3" x="99.04" y="99.53" width="577.4" height="26.25" rx="13.12" transform="translate(775.48 225.31) rotate(180)"/><rect class="cls-5" x="198.45" y="99.53" width="378.57" height="26.25" transform="translate(775.48 225.31) rotate(180)"/><path class="cls-6" d="M99.8,600.81A302.89,302.89,0,0,1,81.69,497.35c0-167.57,135.84-303.41,303.41-303.41S688.5,329.78,688.5,497.35a302.89,302.89,0,0,1-18.11,103.46Z" transform="translate(0 0)"/><rect class="cls-7" x="770.53" y="483.12" width="39.23" height="86.47" transform="translate(1580.3 1052.7) rotate(180)"/><rect class="cls-8" x="738.51" y="556.77" width="99.28" height="25.62" transform="translate(1576.29 1139.17) rotate(180)"/><rect class="cls-7" x="764.93" y="556.77" width="46.44" height="25.62" transform="translate(1576.29 1139.17) rotate(180)"/><rect class="cls-8" x="686.47" y="582.39" width="203.36" height="18.41" transform="translate(1576.29 1183.2) rotate(180)"/><rect class="cls-9" x="740.59" y="582.39" width="95.12" height="18.41" transform="translate(1576.29 1183.2) rotate(180)"/><path class="cls-10" d="M757.74,479.13c-.21-.33-.42-.67-.62-1-.6-1-1.16-2.08-1.66-3.17-.11-.25-.25-.49-.35-.74a34.22,34.22,0,0,1-1.48-4.08c-.1-.34-.17-.69-.26-1-.3-1.12-.54-2.25-.73-3.4-.06-.42-.13-.84-.19-1.26s-.1-.69-.14-1h-4.2v-9.09h80.07v9.09H824a36,36,0,0,1-52.78,28.27h0l0,0a34.5,34.5,0,0,1-3.72-2.31c-.28-.2-.54-.41-.81-.61-.93-.7-1.83-1.44-2.69-2.22l-.74-.68a34,34,0,0,1-3-3.17c-.1-.12-.18-.24-.27-.36A35.2,35.2,0,0,1,757.74,479.13Z" transform="translate(0 0)"/><path class="cls-8" d="M623.22,296.57a164.93,164.93,0,0,0,329.86,0Z" transform="translate(0 0)"/><path class="cls-7" d="M710.49,442.08a164.88,164.88,0,0,1-87.27-145.51H797.75A164.89,164.89,0,0,1,710.49,442.08Z" transform="translate(0 0)"/><rect class="cls-11" x="604.8" y="270.95" width="366.69" height="41.63" transform="translate(1576.29 583.53) rotate(180)"/><rect class="cls-9" x="714.49" y="270.95" width="147.32" height="41.63" transform="translate(1576.29 583.53) rotate(180)"/><path class="cls-12" d="M674.21,591.85c.25-3.7,24.34-2.09,36.88-19.44,2.8-3.86,4.23-7.24,8-8.27,6-1.66,13.49,4.64,26.42,11.75,19,10.43,12.54-69,34.38-85.76s34,18,48.35,43.46c5.7,10.14,10.15,14.33,14.69,15.32,10.57,2.31,17-8.69,25.78-7.79,15.2,1.56,33.81,39.31,23.91,59.69C868.51,650.32,673.5,602.45,674.21,591.85Z" transform="translate(0 0)"/><rect class="cls-13" x="44.42" y="256.8" width="274.78" height="341.64" rx="14.96" transform="translate(363.62 855.25) rotate(180)"/><rect class="cls-14" x="58.46" y="266.6" width="247.91" height="321.74" rx="13.5" transform="translate(364.84 854.94) rotate(180)"/><rect class="cls-15" x="76.78" y="266.6" width="74.5" height="321.74"/><path class="cls-16" d="M101.51,241.84H320.42V598.45H101.51a15,15,0,0,1-15-15V256.8A15,15,0,0,1,101.51,241.84Z" transform="translate(0 0)"/><path class="cls-17" d="M314.92,241.84h31.45a15,15,0,0,1,15,15V583.49a15,15,0,0,1-15,15H314.92Z" transform="translate(0 0)"/><rect class="cls-1" x="119.83" y="332.52" width="173.11" height="40.3" rx="13.74" transform="translate(412.77 705.34) rotate(180)"/><path class="cls-18" d="M99.8,600.81A302.89,302.89,0,0,1,81.69,497.35c0-167.57,135.84-303.41,303.41-303.41S688.5,329.78,688.5,497.35a302.89,302.89,0,0,1-18.11,103.46Z" transform="translate(0 0)"/><path class="cls-19" d="M727.8,315.42l14.27,2.76c1.48.29,2.81-1.26,2.55-2.94L741.32,294a2.11,2.11,0,0,0-1.62-1.84h0a2.14,2.14,0,0,0-2.19,1.11l-11,18.47C725.67,313.21,726.33,315.14,727.8,315.42Z" transform="translate(0 0)"/><path class="cls-20" d="M674,560.57h0l2.7-13.94h0l40.14-207.55,2-10.29h0l1.35-7,10-17.07,6.83,1.32h0l6.83,1.32L746.7,327l-1.35,7h0L704.56,544.81h0l-.79,4.09h0l-3.25,16.8a1.57,1.57,0,0,1-1.83,1.24l-14-2.7h0l-1.92-.38-1.59-.3h0l-6-1.16h0l-.49-.1a1.05,1.05,0,0,1-.84-1.23Z" transform="translate(0 0)"/><path class="cls-1" d="M636.35,341.77l14.28,2.76c1.47.29,2.8-1.26,2.54-2.94l-3.29-21.24a2.13,2.13,0,0,0-1.62-1.84h0a2.13,2.13,0,0,0-2.19,1.1l-11,18.48C634.22,339.56,634.88,341.49,636.35,341.77Z" transform="translate(0 0)"/><path class="cls-21" d="M582.53,586.92h0l2.7-13.94h0l40.15-207.55,2-10.29h0l1.34-7,10-17.08,6.83,1.33h0l6.83,1.32,2.9,19.56-1.35,7h0L613.11,571.16h0l-.79,4.09h0l-3.25,16.8a1.57,1.57,0,0,1-1.83,1.24l-14-2.7h0l-1.93-.38-1.59-.3h0l-6-1.17h0l-.5-.09a1,1,0,0,1-.83-1.23Z" transform="translate(0 0)"/><path class="cls-3" d="M661.59,320.06l14.13-3.44c1.45-.36,2-2.32,1.08-3.74L665,295a2.12,2.12,0,0,0-2.24-1h0a2.14,2.14,0,0,0-1.53,1.92l-2.27,21.37C658.73,318.93,660.13,320.41,661.59,320.06Z" transform="translate(0 0)"/><path class="cls-22" d="M714.84,565.33h0l-3.36-13.8h0l-50-205.39L659,336h0l-1.68-6.89,2-19.68,6.76-1.64h0l6.76-1.65,10.78,16.58,1.68,6.88h0l50.82,208.7h0l1,4.06h0l4.05,16.62a1.56,1.56,0,0,1-1.14,1.89l-13.81,3.36h0l-1.91.46-1.57.38h0l-5.94,1.45h0l-.49.12a1.05,1.05,0,0,1-1.27-.77Z" transform="translate(0 0)"/><path class="cls-23" d="M581.55,380.35H762.9a0,0,0,0,1,0,0v208.9a11.56,11.56,0,0,1-11.56,11.56H593.11a11.56,11.56,0,0,1-11.56-11.56V380.35A0,0,0,0,1,581.55,380.35Z" transform="translate(1344.45 981.16) rotate(180)"/><path class="cls-24" d="M25.09,600.81c-1.15-4.59,1.56-16.49,7.3-25.79,2.72-4.41,4.35-6.72,7.23-7.51,5.48-1.51,12.24,4.21,24,10.67,17.24,9.47,11.39-62.63,31.23-77.9s30.9,16.32,43.91,39.48c5.18,9.21,9.22,13,13.34,13.91,9,2,14.63-5.78,23.41-7.07,18.25-2.69,45.91,24.81,42.49,41.44C210.09,626.56,31.52,626.51,25.09,600.81Z" transform="translate(0 0)"/><path class="cls-25" d="M970.33,356.73a10,10,0,1,0,10-10A10,10,0,0,0,970.33,356.73Z" transform="translate(0 0)"/><circle class="cls-25" cx="8.3" cy="454.44" r="8.3"/><path class="cls-25" d="M337.57,166.28a5,5,0,1,0,5,5A5,5,0,0,0,337.57,166.28Z" transform="translate(0 0)"/><circle class="cls-25" cx="698.04" cy="248.5" r="4.98" transform="translate(-42.08 283.59) rotate(-22.31)"/><path class="cls-26" d="M69.27,212.62a10,10,0,1,0,10-10A10,10,0,0,0,69.27,212.62Z" transform="translate(0 0)"/><path class="cls-27" d="M252.18,188.81A5.81,5.81,0,1,0,258,183,5.81,5.81,0,0,0,252.18,188.81Z" transform="translate(0 0)"/><path class="cls-28" d="M830.42,447.81a5.81,5.81,0,1,0,5.81-5.81A5.81,5.81,0,0,0,830.42,447.81Z" transform="translate(0 0)"/><path class="cls-29" d="M18.25,380.61a5.81,5.81,0,1,0,5.81-5.81A5.81,5.81,0,0,0,18.25,380.61Z" transform="translate(0 0)"/><path class="cls-30" d="M565.84,209.88a5.81,5.81,0,1,0,5.8-5.81A5.8,5.8,0,0,0,565.84,209.88Z" transform="translate(0 0)"/><path class="cls-1" d="M425.29,417.67s-15.93,6.71-15.69,10.05,8.08,3,13.33.77c5.27-2.65,6.82-4.44,6.82-4.44a1.77,1.77,0,0,0,2.73-.18c1.19-1.64,2.7-4.93,1-5.86S425.29,417.67,425.29,417.67Z" transform="translate(0 0)"/><path class="cls-3" d="M447,301.71s-12,48.81-15.14,64.76-8.42,48.28-7.53,50.94,6.2,1.77,8.41.44,12.4-45.63,15.51-53.16,19.93-54.92,19.93-58.91S452.79,297.63,447,301.71Z" transform="translate(0 0)"/><path class="cls-1" d="M469.64,399.64s-6,16.22-3.38,18.32,7.69-3.86,9.67-9.21c1.66-5.65,1.41-8,1.41-8s2.11-.13,1.73-2.12-1.75-5.33-3.61-4.71S469.64,399.64,469.64,399.64Z" transform="translate(0 0)"/><path class="cls-5" d="M483.75,303.64a235.32,235.32,0,0,0-9.29,28.09c-3.95,15.24-6.17,22-5.5,24.11s9,34.42,7.87,39.56-8.1,6.14-11.09,2.67-15.31-35.4-15-43,1.48-45.3,8.08-54.42S483.32,296.6,483.75,303.64Z" transform="translate(0 0)"/><path class="cls-31" d="M461.35,240.44a22.78,22.78,0,0,1,13.09,11.78c4.19,9.16,11.52,37.7,9.69,51.06-1.83,8.11-29.33,6-37.18-1.57-1.05-6-5.5-28.54-.79-51.06C447.21,245.15,453,240.44,461.35,240.44Z" transform="translate(0 0)"/><path class="cls-32" d="M455.59,213.21s8,8.11,7.2,16.49c-1.18,6.94-4.06,7.46.26,12.05,0,0-3.27,4.71-9.42,1.57,0,0,2.88-3.41-2.1-6.29-3.75-2.17-9.69-9.42-10.47-15.71s2.36-8.9,6.54-9.95S454.41,211.63,455.59,213.21Z" transform="translate(0 0)"/><path class="cls-33" d="M463.13,243.11s24.27,2.21,36.21,11.93c4,8.66-36.16,1.91-39.93-3.83S463.13,243.11,463.13,243.11Z" transform="translate(0 0)"/><path class="cls-32" d="M492.56,230.62s.32-2.21-1.14-3.3-3.18-4.35-3.1-5.94S490.6,223,490.6,223s-3.06-6.12-2.5-6.46,4.9,2.65,6.24,5,.08,5.05,1.09,7.66Z" transform="translate(0 0)"/><path class="cls-34" d="M495.17,256.78s-4.47-16-3.11-27.7l3.72-.47s4.63,10.38,5.38,19.48S497.25,260.11,495.17,256.78Z" transform="translate(0 0)"/><path class="cls-32" d="M411.93,215.21a6.32,6.32,0,0,1-1-3.68c.28-1.7.44-6.31-.48-6.44s-1.19,2.33-1.19,2.33-1-3.53-2.41-3.69-4.65,4.3-3.5,6.29,4.48,3.52,5.28,4.7l1.2,1.78Z" transform="translate(0 0)"/><path class="cls-35" d="M450.79,256.16s-23.43-6.69-33.35-18.47c-2.36-9.26,35.88,4.86,38.52,11.2S450.79,256.16,450.79,256.16Z" transform="translate(0 0)"/><path class="cls-36" d="M424.6,237.75s-5.47-15.74-13.22-24.54l-3.33,1.73s2.1,11.17,6.67,19.08S424.78,241.67,424.6,237.75Z" transform="translate(0 0)"/><path class="cls-37" d="M456.64,220s3.34,5.3,2.55,6.28-4.52,1.57-4.71.79,2.94-2.16,2.94-2.16S454.48,218.77,456.64,220Z" transform="translate(0 0)"/><path class="cls-8" d="M438.85,213.16s10.89-7.54,16.76-3.63c3.35,5-12,8.94-12,8.94s7.54,15.64,3.35,15.92S431,219.59,438.85,213.16Z" transform="translate(0 0)"/><path class="cls-38" d="M896.64,222.19l-2.6-9.68a2.82,2.82,0,0,0-5.45,0L886,222.19a2.82,2.82,0,0,1-2,2l-9.68,2.61a2.82,2.82,0,0,0,0,5.44l9.68,2.61a2.82,2.82,0,0,1,2,2l2.61,9.68a2.82,2.82,0,0,0,5.45,0l2.6-9.68a2.82,2.82,0,0,1,2-2l9.69-2.61a2.82,2.82,0,0,0,0-5.44l-9.69-2.61A2.82,2.82,0,0,1,896.64,222.19Z" transform="translate(0 0)"/><path class="cls-38" d="M600.24,249.06,599,244.43a1.35,1.35,0,0,0-2.61,0l-1.24,4.63a1.35,1.35,0,0,1-1,.95l-4.63,1.25a1.35,1.35,0,0,0,0,2.61l4.63,1.24a1.37,1.37,0,0,1,1,1l1.24,4.63a1.35,1.35,0,0,0,2.61,0l1.25-4.63a1.35,1.35,0,0,1,1-1l4.63-1.24a1.35,1.35,0,0,0,0-2.61L601.19,250A1.34,1.34,0,0,1,600.24,249.06Z" transform="translate(0 0)"/><path class="cls-38" d="M945.47,409.88l-1.25-4.63a1.34,1.34,0,0,0-2.6,0l-1.25,4.63a1.34,1.34,0,0,1-1,.95l-4.64,1.25a1.35,1.35,0,0,0,0,2.61l4.64,1.24a1.35,1.35,0,0,1,1,1l1.25,4.63a1.35,1.35,0,0,0,2.6,0l1.25-4.63a1.37,1.37,0,0,1,1-1l4.63-1.24a1.35,1.35,0,0,0,0-2.61l-4.63-1.25A1.35,1.35,0,0,1,945.47,409.88Z" transform="translate(0 0)"/><path class="cls-39" d="M492,501.35H668.78a11.84,11.84,0,0,1,11.84,11.84V589a11.84,11.84,0,0,1-11.84,11.84H492Z" transform="translate(0 0)"/><path class="cls-25" d="M471.76,581.11V521.05a6.57,6.57,0,0,0-6.57-6.57H203.75a6.57,6.57,0,0,1-6.57-6.56h0a6.57,6.57,0,0,1,6.57-6.56H508.36a11.84,11.84,0,0,1,11.84,11.84V589a11.84,11.84,0,0,1-11.84,11.84H203.75a6.57,6.57,0,0,1-6.57-6.57h0a6.57,6.57,0,0,1,6.57-6.56H465.19A6.57,6.57,0,0,0,471.76,581.11Z" transform="translate(0 0)"/><path class="cls-1" d="M231,514.48H502.11a0,0,0,0,1,0,0v73.2a0,0,0,0,1,0,0H231a21.74,21.74,0,0,1-21.74-21.74V536.22A21.74,21.74,0,0,1,231,514.48Z" transform="translate(711.36 1102.16) rotate(180)"/><path class="cls-40" d="M502.11,563.13v2.8a21.74,21.74,0,0,1-21.74,21.75H209.24V563.13Z" transform="translate(0 0)"/><rect class="cls-3" x="553.65" y="535.39" width="101.13" height="33.71" transform="translate(1208.44 1104.5) rotate(180)"/><path class="cls-41" d="M447.87,429.61H624.6a11.84,11.84,0,0,1,11.84,11.84v49.87a11.84,11.84,0,0,1-11.84,11.84H447.87V429.61Z" transform="translate(0 0)"/><path class="cls-42" d="M427.59,483.46V449.3a6.57,6.57,0,0,0-6.57-6.56H159.58a6.57,6.57,0,0,1-6.57-6.57h0a6.57,6.57,0,0,1,6.57-6.56h304.6A11.84,11.84,0,0,1,476,441.45v49.87a11.84,11.84,0,0,1-11.84,11.84H159.58A6.57,6.57,0,0,1,153,496.6h0a6.57,6.57,0,0,1,6.57-6.57H421A6.57,6.57,0,0,0,427.59,483.46Z" transform="translate(0 0)"/><path class="cls-1" d="M165.07,490H436.2a21.74,21.74,0,0,0,21.74-21.74v-3.81a21.74,21.74,0,0,0-21.74-21.74H165.07Z" transform="translate(0 0)"/><path class="cls-40" d="M457.94,465.49v2.8A21.74,21.74,0,0,1,436.2,490H165.07V465.49Z" transform="translate(0 0)"/><polygon class="cls-43" points="613.33 503.16 599.38 503.16 599.38 429.61 599.38 429.61 613.33 429.61 613.33 429.61 613.33 503.16"/><path class="cls-44" d="M440.86,600.81l-.11-48.24H839.83l.11,48.24Zm381.29-27a5.63,5.63,0,1,0,5.65,5.62A5.63,5.63,0,0,0,822.15,573.85Z" transform="translate(0 0)"/><polygon class="cls-45" points="839.83 552.57 839.85 564.64 440.78 565.59 440.75 552.57 839.83 552.57"/><polygon class="cls-46" points="801.78 600.81 801.74 583.81 806.12 583.8 806.16 600.81 801.78 600.81"/><rect class="cls-46" x="793.85" y="591.56" width="2.71" height="9.24" transform="translate(-1.43 1.92) rotate(-0.14)"/><rect class="cls-46" x="786.34" y="591.58" width="2.71" height="9.23" transform="translate(-1.44 1.9) rotate(-0.14)"/><rect class="cls-46" x="778.84" y="591.6" width="2.71" height="9.21" transform="translate(-1.41 1.85) rotate(-0.14)"/><rect class="cls-46" x="771.33" y="591.62" width="2.71" height="9.19" transform="translate(-1.44 1.87) rotate(-0.14)"/><polygon class="cls-46" points="761.91 600.81 761.87 583.9 766.25 583.89 766.29 600.81 761.91 600.81"/><rect class="cls-46" x="753.97" y="591.66" width="2.71" height="9.15" transform="translate(-1.43 1.82) rotate(-0.14)"/><rect class="cls-46" x="746.47" y="591.68" width="2.71" height="9.13" transform="translate(-1.43 1.8) rotate(-0.14)"/><rect class="cls-46" x="738.96" y="591.7" width="2.71" height="9.11" transform="translate(-1.44 1.79) rotate(-0.14)"/><rect class="cls-46" x="731.46" y="591.71" width="2.71" height="9.09" transform="translate(-1.43 1.76) rotate(-0.14)"/><polygon class="cls-46" points="722.03 600.81 721.99 584 726.37 583.99 726.41 600.81 722.03 600.81"/><rect class="cls-46" x="714.1" y="591.75" width="2.71" height="9.05" transform="translate(-1.42 1.7) rotate(-0.14)"/><rect class="cls-46" x="706.59" y="591.77" width="2.71" height="9.04" transform="translate(-1.4 1.67) rotate(-0.14)"/><rect class="cls-46" x="699.09" y="591.79" width="2.71" height="9.02" transform="translate(-1.44 1.69) rotate(-0.14)"/><rect class="cls-46" x="691.58" y="591.81" width="2.71" height="9" transform="translate(-1.43 1.66) rotate(-0.14)"/><polygon class="cls-46" points="682.15 600.81 682.12 584.09 686.49 584.08 686.53 600.81 682.15 600.81"/><rect class="cls-46" x="674.22" y="591.85" width="2.71" height="8.96" transform="matrix(1, 0, 0, 1, -1.4, 1.59)"/><rect class="cls-46" x="666.71" y="591.87" width="2.71" height="8.94" transform="translate(-1.42 1.59) rotate(-0.14)"/><rect class="cls-46" x="659.21" y="591.89" width="2.71" height="8.92" transform="matrix(1, 0, 0, 1, -1.42, 1.58)"/><rect class="cls-46" x="651.7" y="591.9" width="2.71" height="8.9" transform="translate(-1.44 1.58) rotate(-0.14)"/><polygon class="cls-46" points="642.28 600.81 642.24 584.19 646.62 584.18 646.66 600.81 642.28 600.81"/><rect class="cls-46" x="634.34" y="591.95" width="2.71" height="8.86" transform="translate(-1.45 1.55) rotate(-0.14)"/><rect class="cls-46" x="626.84" y="591.96" width="2.71" height="8.84" transform="translate(-1.42 1.5) rotate(-0.14)"/><rect class="cls-46" x="619.33" y="591.98" width="2.71" height="8.83" transform="translate(-1.42 1.48) rotate(-0.14)"/><rect class="cls-46" x="611.83" y="592" width="2.71" height="8.81" transform="translate(-1.41 1.45) rotate(-0.14)"/><polygon class="cls-46" points="602.4 600.81 602.36 584.28 606.74 584.27 606.78 600.81 602.4 600.81"/><rect class="cls-46" x="594.47" y="592.04" width="2.71" height="8.77" transform="translate(-1.4 1.4) rotate(-0.13)"/><rect class="cls-46" x="586.96" y="592.06" width="2.71" height="8.75" transform="translate(-1.42 1.4) rotate(-0.14)"/><rect class="cls-46" x="579.46" y="592.08" width="2.71" height="8.73" transform="translate(-1.42 1.39) rotate(-0.14)"/><rect class="cls-46" x="571.95" y="592.1" width="2.71" height="8.71" transform="translate(-1.42 1.37) rotate(-0.14)"/><polygon class="cls-46" points="562.53 600.81 562.49 584.38 566.87 584.37 566.9 600.81 562.53 600.81"/><rect class="cls-46" x="554.59" y="592.14" width="2.71" height="8.67" transform="translate(-1.42 1.32) rotate(-0.14)"/><rect class="cls-46" x="547.09" y="592.15" width="2.71" height="8.65" transform="translate(-1.45 1.34) rotate(-0.14)"/><rect class="cls-46" x="539.58" y="592.17" width="2.71" height="8.64" transform="translate(-1.42 1.29) rotate(-0.14)"/><rect class="cls-46" x="532.07" y="592.19" width="2.71" height="8.62" transform="translate(-1.42 1.28) rotate(-0.14)"/><polygon class="cls-46" points="522.65 600.81 522.61 584.48 526.99 584.47 527.03 600.81 522.65 600.81"/><rect class="cls-46" x="514.72" y="592.23" width="2.71" height="8.58" transform="translate(-1.43 1.24) rotate(-0.14)"/><rect class="cls-46" x="507.21" y="592.25" width="2.71" height="8.56" transform="translate(-1.4 1.2) rotate(-0.13)"/><rect class="cls-46" x="499.7" y="592.27" width="2.71" height="8.54" transform="translate(-1.42 1.2) rotate(-0.14)"/><rect class="cls-46" x="492.2" y="592.29" width="2.71" height="8.52" transform="translate(-1.41 1.17) rotate(-0.14)"/><polygon class="cls-46" points="482.77 600.81 482.73 584.57 487.11 584.56 487.15 600.81 482.77 600.81"/><rect class="cls-46" x="474.84" y="592.33" width="2.71" height="8.48" transform="translate(-1.43 1.15) rotate(-0.14)"/><rect class="cls-46" x="467.33" y="592.35" width="2.71" height="8.46" transform="translate(-1.42 1.12) rotate(-0.14)"/><rect class="cls-46" x="459.83" y="592.36" width="2.71" height="8.44" transform="translate(-1.42 1.1) rotate(-0.14)"/><rect class="cls-46" x="452.32" y="592.38" width="2.71" height="8.43" transform="matrix(1, 0, 0, 1, -1.44, 1.1)"/><path class="cls-47" d="M874.35,499.08s-11.82,7.47-10.27,9.49,13.69-3.42,14.47-5.45-2-4.51-2-4.51Z" transform="translate(0 0)"/><polygon class="cls-3" points="914.48 600.81 920.07 600.81 844.42 244.91 838.83 244.91 914.48 600.81"/><polygon class="cls-3" points="880.94 600.81 886.53 600.81 810.88 244.91 805.29 244.91 880.94 600.81"/><polygon class="cls-3" points="814 265.41 845.67 265.41 844.62 260.44 812.94 260.44 814 265.41"/><polygon class="cls-3" points="818.35 285.91 850.03 285.91 848.97 280.94 817.3 280.94 818.35 285.91"/><polygon class="cls-3" points="822.71 306.4 854.39 306.4 853.33 301.43 821.65 301.43 822.71 306.4"/><polygon class="cls-3" points="827.07 326.9 858.74 326.9 857.69 321.93 826.01 321.93 827.07 326.9"/><polygon class="cls-3" points="831.42 347.4 863.1 347.4 862.04 342.43 830.37 342.43 831.42 347.4"/><polygon class="cls-3" points="835.78 367.89 867.46 367.89 866.4 362.92 834.72 362.92 835.78 367.89"/><polygon class="cls-3" points="840.14 388.39 871.81 388.39 870.76 383.42 839.08 383.42 840.14 388.39"/><polygon class="cls-3" points="844.49 408.88 876.17 408.88 875.11 403.92 843.44 403.92 844.49 408.88"/><polygon class="cls-3" points="848.85 429.38 880.53 429.38 879.47 424.41 847.79 424.41 848.85 429.38"/><polygon class="cls-3" points="853.21 449.88 884.88 449.88 883.83 444.91 852.15 444.91 853.21 449.88"/><polygon class="cls-3" points="857.56 470.38 889.24 470.38 888.18 465.41 856.51 465.41 857.56 470.38"/><polygon class="cls-3" points="861.92 490.87 893.6 490.87 892.54 485.9 860.86 485.9 861.92 490.87"/><polygon class="cls-3" points="866.28 511.37 897.95 511.37 896.9 506.4 865.22 506.4 866.28 511.37"/><polygon class="cls-3" points="870.63 531.87 902.31 531.87 901.25 526.9 869.58 526.9 870.63 531.87"/><polygon class="cls-3" points="874.99 552.36 906.67 552.36 905.61 547.39 873.93 547.39 874.99 552.36"/><polygon class="cls-3" points="879.35 572.86 911.02 572.86 909.97 567.89 878.29 567.89 879.35 572.86"/><path class="cls-48" d="M886.32,364.37s-5,20.74.42,22.4,16.18,2.91,17.42-5.8S895,359,886.32,364.37Z" transform="translate(0 0)"/><path class="cls-3" d="M904.58,362.3s-19.5-8.71-22-1.66S897.11,371,897.11,371s-2.07,17.84,4.15,18.67S912,367.69,904.58,362.3Z" transform="translate(0 0)"/><path class="cls-3" d="M879.48,429.91c-.62,0-17.94,19.39-19,26.86s9.86,42.62,12.14,43.24,5.39,0,5.6-1.24-5.29-37-3.43-38.89,18.57-8.81,21.06-20S879.48,429.91,879.48,429.91Z" transform="translate(0 0)"/><path class="cls-3" d="M903.12,438.42s-5,23-9.64,29.86,3.11,48.22,1.24,49.78-4.35,1.55-5.91-1.25-8.4-35.77-8.71-45.73,2.8-33.29,2.8-33.29Z" transform="translate(0 0)"/><path class="cls-25" d="M885.91,391.75s10.78-5.39,17.84,1.66,8.71,32.77,1.24,46.46c-7.47,10.78-25.72-1.25-28.21-6.64S884.25,409.17,885.91,391.75Z" transform="translate(0 0)"/><path class="cls-32" d="M857.55,387.08c0-.46-.62-6.53-4.67-6.53s-5.44,2.8-4.2,3.11a3.42,3.42,0,0,0,2.18-.15s1.56,4.66,3.27,5S857.55,387.08,857.55,387.08Z" transform="translate(0 0)"/><path class="cls-25" d="M873.26,401.08c-4,4-11.2-11.82-15.24-14.93s-5.92.31-5.92.31,6.54,21.78,12.76,28.62,19.29-1.86,27.69-12.75c7-9.05.21-11-2.82-11.41a10.84,10.84,0,0,0-1.23-.1S881.35,393,873.26,401.08Z" transform="translate(0 0)"/><path class="cls-47" d="M892.86,517.75a3.77,3.77,0,0,1,1.24,4c-.62,2.8-8.4,12.44-10.89,11.2s5.6-16.18,5.6-16.18Z" transform="translate(0 0)"/><path class="cls-1" d="M345.83,140.18s13.28-.83,13.9,1.45-13.69,4.56-14.52,3.11S345.83,140.18,345.83,140.18Z" transform="translate(0 0)"/><path class="cls-1" d="M364.81,134s13.27-.83,13.9,1.46S365,140,364.19,138.52,364.81,134,364.81,134Z" transform="translate(0 0)"/><path class="cls-49" d="M323.23,41.25s6.22-2.08,10.37,5,.62,15.14,3.94,21.78-2.91,10.37-8.71,5.39S320.74,45.39,323.23,41.25Z" transform="translate(0 0)"/><path class="cls-50" d="M326.75,8.17S322.71-2.1,311.2.39s-13.38,11.51-24.27,11.2-17.42.93-23,6.53-18.35,0-21.78,10.89.31,27.69,17.74,27.69S277.29,43,286.93,46.12s13.38,4.67,22.09-.31,19.6-11.2,20.22-19.6S329.24,11.59,326.75,8.17Z" transform="translate(0 0)"/><path class="cls-25" d="M306.63,81.9s-4.56,14.51,7.47,17.83c11.62.83,18.67,1.25,18.67,1.25s9.54,43.55,12.44,42.31,3.32-.83,3.32-4.57S344,98.9,341.06,95.17s-19.91-10.78-19.91-10.78L305,83.14" transform="translate(0 0)"/><path class="cls-25" d="M320.31,79.87s-3.11,14.9,9.18,17c11.64-.32,18.7-.59,18.7-.59s13.77,42.4,16.53,40.88,3.22-1.15,2.86-4.87-8.45-39.18-11.7-42.61S335,80.92,335,80.92l-16.22.35" transform="translate(0 0)"/><path class="cls-51" d="M316.74,38.07s7.63.79,10,4,2.37,6.32,5,10.27-1.31,7.37.53,13.16,1.05,6.06,4.48,11.32,0,7.64-4.22,10.27-20.74,4.38-25.48-1.41-.79-7.11.53-11.58-2.69-13.86-3.48-21.5,1.58-11.32,7.11-13.42S316.74,38.07,316.74,38.07Z" transform="translate(0 0)"/><path class="cls-32" d="M321.14,10.76s5.18,10.37,1.78,18.23c-3.32,6.35-6.27,5.95-3.53,11.74,0,0-4.65,3.54-9.62-1.44,0,0,3.86-2.39,0-6.74-3-3.28-6.41-12.17-5.2-18.5S309.6,6.17,314,6.48,320.49,8.87,321.14,10.76Z" transform="translate(0 0)"/><path class="cls-37" d="M320,17.62s1.57,6.18.5,6.88-4.87.1-4.81-.72,3.53-1.16,3.53-1.16S318.31,15.8,320,17.62Z" transform="translate(0 0)"/><path class="cls-52" d="M306.22,43.74a2,2,0,0,0-.65.16c-1.22.51-3.86,2.53-5.57,10.62-2.28,10.78-4.77,15.76-3.11,19.29S319.29,87.29,323,86.25s2.7-3.11.21-5.18-15.56-7.47-15.77-11,8.92-14.51,6-19.7" transform="translate(0 0)"/><path class="cls-4" d="M353,83.45s1.4,1.71-.93,3-29.87,5.75-30.8,5.44-1.4-2.18-1.4-2.18Z" transform="translate(0 0)"/><path class="cls-3" d="M314.7,70.35a6.16,6.16,0,0,1,4.84-7.1c11.13-2.27,34.34-6.66,35.52-4.06,1.3,2.86-.45,18.81-1.05,23.93A2.16,2.16,0,0,1,352.25,85l-31.7,6.12A2.21,2.21,0,0,1,318,89.33Z" transform="translate(0 0)"/><path class="cls-53" d="M322,7.65s2.08,3.73-2.9,5.39-4.36,4.56-7.88,7.67S306,24.24,302.69,28s-8.71-4.35-3.94-12.44S303.32,5,310.58,3.71A12.37,12.37,0,0,1,322,7.65Z" transform="translate(0 0)"/><path class="cls-1" d="M339.2,75.36a3.43,3.43,0,1,1-3.43-3.42A3.44,3.44,0,0,1,339.2,75.36Z" transform="translate(0 0)"/><path class="cls-8" d="M182.05,227.8s-4,1.25-4,8.56v19.29h13.84V236.36c0-7.31-4-8.56-4-8.56Z" transform="translate(0 0)"/><rect class="cls-9" x="177.23" y="222.2" width="15.24" height="6.22" transform="translate(369.7 450.63) rotate(180)"/><path class="cls-8" d="M184.9,227.08h0a3.75,3.75,0,0,0,3.74-3.74V98.07a3.74,3.74,0,0,0-3.74-3.73h0a3.73,3.73,0,0,0-3.73,3.73V223.34A3.74,3.74,0,0,0,184.9,227.08Z" transform="translate(0 0)"/></g></svg>