<svg xmlns="http://www.w3.org/2000/svg" xmlns:xlink="http://www.w3.org/1999/xlink" viewBox="0 0 1448 882.73"><defs><style>.cls-1{fill:none;}.cls-2{opacity:0.3;}.cls-3{fill:#0c6;}.cls-4{fill:#8cabef;}.cls-5{fill:#efbfa5;}.cls-6{fill:#292949;}.cls-7{fill:#fff;}.cls-8{fill:#353a85;}.cls-9{fill:#5d66d3;}.cls-10{fill:#dfd8c7;}.cls-11{fill:#c1bbac;}.cls-12{fill:#cbc4b5;}.cls-13{fill:#f4f4f4;}.cls-14{opacity:0.05;}.cls-15{clip-path:url(#clip-path);}.cls-16{fill:#272525;}.cls-17{clip-path:url(#clip-path-2);}.cls-18{fill:#eed5d5;}.cls-19{fill:#dddae8;}.cls-20{fill:#007532;}.cls-21{fill:#babcbe;}.cls-22{fill:#26a358;}.cls-23{fill:#9eb79c;}.cls-24{fill:#b0c0ba;}.cls-25{fill:#3b3387;}.cls-26{opacity:0.13;}.cls-27{clip-path:url(#clip-path-3);}.cls-28{fill:#000100;}.cls-29{opacity:0.64;}.cls-30{clip-path:url(#clip-path-4);}.cls-31{opacity:0.11;}.cls-32{clip-path:url(#clip-path-5);}.cls-33{opacity:0.08;}.cls-34{clip-path:url(#clip-path-6);}.cls-35{fill:#b97262;}.cls-36{opacity:0.1;}.cls-37{clip-path:url(#clip-path-7);}.cls-38{opacity:0.2;}.cls-39{clip-path:url(#clip-path-8);}.cls-40{clip-path:url(#clip-path-9);}</style><clipPath id="clip-path" transform="translate(40 -77.99)"><rect class="cls-1" x="762.78" y="255.82" width="275.26" height="413.36"/></clipPath><clipPath id="clip-path-2" transform="translate(40 -77.99)"><rect class="cls-1" x="762.78" y="352.66" width="171.26" height="316.51"/></clipPath><clipPath id="clip-path-3" transform="translate(40 -77.99)"><rect class="cls-1" x="265.4" y="200.83" width="156.88" height="17.12" transform="translate(-6.55 11.16) rotate(-1.84)"/></clipPath><clipPath id="clip-path-4" transform="translate(40 -77.99)"><rect class="cls-1" x="339.92" y="111.82" width="20.83" height="21.25" transform="translate(-3.76 11.33) rotate(-1.84)"/></clipPath><clipPath id="clip-path-5" transform="translate(40 -77.99)"><rect class="cls-1" x="238.48" y="432.11" width="190.36" height="16.9" transform="translate(-13.99 10.95) rotate(-1.84)"/></clipPath><clipPath id="clip-path-6" transform="translate(40 -77.99)"><rect class="cls-1" x="1070.97" y="285.64" width="188.69" height="269.13"/></clipPath><clipPath id="clip-path-7" transform="translate(40 -77.99)"><rect class="cls-1" x="435.42" y="620.68" width="141.16" height="159.66"/></clipPath><clipPath id="clip-path-8" transform="translate(40 -77.99)"><rect class="cls-1" x="413.39" y="573.24" width="319.19" height="21.12"/></clipPath><clipPath id="clip-path-9" transform="translate(40 -77.99)"><rect class="cls-1" x="558.52" y="586.7" width="10.87" height="195.72"/></clipPath></defs><title>bookShop-02</title><g id="object"><g class="cls-2"><path class="cls-3" d="M624.31,777.5c-42.41.14-84.81,1.32-127.14,6.74-16,2-31.59,6.54-47.58,8.35-32,3.62-63.34,10.38-95.4,13.5-25.82,2.51-51.76,4-77.5,7.18-24.14,3-50.87,2.29-74.82-2.64-17.73-3.65-35.55-5.71-53-11.57-19.51-6.57-40.7-11.26-61-11.09-29,.24-57.19.27-84.93,11.86-9.73,4.06-21.65,10.75-29,19.28-16.92,19.54-19.21,68.3-2.32,88.57,28.46,34.1,89.2,47.49,129.1,48.12,43.71.69,86.17-3,130-5.24,40.68-2,81.26-4.95,122-4.85,83.22.21,166.45,0,249.52-6.4,78.05-6,156.29-3.95,234.51-3.95,80.2,0,159.87.73,239.5,13,34.69,5.35,70,7.22,104.91,11,31.23,3.36,61.24-.07,92.34-3.17a198.19,198.19,0,0,0,75.8-23.38c18.78-10.34,52.26-42.45,58-67.12,16.15-69.17-227.57-67.5-265-67.35-41.86.18-84,1.76-125.88-.08-17.6-.77-34.93-4.73-52.11-9.07s-34.33-3.22-51.68-5c-72.34-7.57-144.83-6.47-217.4-6.47C671.56,777.65,647.93,777.42,624.31,777.5Z" transform="translate(40 -77.99)"/></g><path class="cls-4" d="M637.46,271.46a154,154,0,0,0,55.32,20.42q5.24-24,11.07-47.87c1.68-6.86,3.44-13.83,6.8-20.09,1.78-3.33,8.49-9.4,6.41-13.72-3.66-7.57-19.57.81-24.11,3.32-11.85,6.56-22.69,15.69-32,25.45-2.25,2.36-25.55,31.24-23.49,32.49" transform="translate(40 -77.99)"/><path class="cls-5" d="M800.22,648l1.08,65.5c-.44,18.17,1.19,36.28,2.3,54.4,1,16.82-2.36,34.16,5.62,49.75,2.5,4.89,7.83,8.3,11.88,2.65,3.12-4.35,1.69-11.88,2.46-16.94,5.79-38,16.59-75,22-113,5.64-39.85-9.78-38.8-45.31-42.33" transform="translate(40 -77.99)"/><polygon class="cls-6" points="843.94 728.46 839.73 739.39 860.45 757.62 879.43 758.41 885.57 748.39 860.04 726.19 843.94 728.46"/><path class="cls-5" d="M753.82,648.63,741.88,713c-4.14,28.81-13.56,56.87-17.7,85.68-.95,6.63-.47,13.87-3.24,20.12s-8,6.36-12.69,2.21C702,815.49,704.87,805.56,705,798c.77-50.56-3.21-100.41-4.17-151.06a2.26,2.26,0,0,1,.53-1.84,2.12,2.12,0,0,1,1.55-.3c4.92.33,50.66,5.25,50.92,3.86" transform="translate(40 -77.99)"/><polygon class="cls-6" points="744.84 731.15 738.27 740.84 754.34 763.29 772.66 768.33 780.9 759.96 761.04 732.57 744.84 731.15"/><polygon class="cls-6" points="907.73 611.68 898.79 518.04 894.48 457.2 879.99 407.5 801.76 395.36 705.03 411.94 700.38 430.74 719 604.68 812.29 611.68 811.03 503.41 825.42 570.52 824.81 611.68 907.73 611.68"/><path class="cls-7" d="M685.57,302.54c-.14,3.16-.22,6.32-.28,9.48-1.13,64.23,2.41,129.27,2.82,194a716.55,716.55,0,0,1,100.27-8.56c7.77-.12,43.09,5.33,48,.69,6.67-6.29-.67-5.11-.18-13.31.63-10.61-4.46-19.3-2.54-31.88,2.27-14.78,6.77-29.39,9.36-44.17a645.69,645.69,0,0,0,9.35-89.69c.9-26.67-.07-54.32-11.53-78.41-28.28-59.42-119.46-58.35-144.48,3.69-7.41,18.37-10,38.26-10.8,58.12" transform="translate(40 -77.99)"/><path class="cls-4" d="M788.45,219.2l-24.76,45.13q1.93,68.37,3.88,136.76.88,31.52,1.79,63c.2,7.29.38,14.59.62,21.88.1,3.28-.8,8.79,1.07,11.46,4.05,5.8,18.87,4,25.33,4.5,10.09.8,20.31,1.62,29.81,5.1,6.32,2.32,12.31,5.81,19,6.74,1.5.21,3.17.24,4.35-.71s1.54-3,1.67-4.63c2.31-31.3,2.36-63.57,4.1-95.2,1.36-24.87,4.73-49.95,3.54-74.86-1.22-25.63-5.23-51.12-10.13-76.28-2.9-14.89-6.31-30.07-14.5-42.84-9.3-14.47-22.45-20.27-38.65-23.53-5.73-1.15-27-9.2-23.47,3.81,1.76,6.43,12,14.47,16.37,19.64" transform="translate(40 -77.99)"/><path class="cls-4" d="M734.57,223.44l24.77,45.13c-.52,0-3.14,110.62-3.36,118.09q-1.2,42.58-2.41,85.19c-.23,7.89.83,17.13-.71,24.89-2.16,10.83-13.56,8.7-23.27,9.58-21.26,1.91-43.63,5.54-65,4.47-6.14-.31,2-128.61,1.94-140.58-.05-43.06-8.93-90.83,12.94-129.88,6.37-11.36,17.59-29.57,30-35.19,11.54-5.22,28.06-6.11,40.59-9l.65,8.12Z" transform="translate(40 -77.99)"/><path class="cls-6" d="M788.32,114.13a49.88,49.88,0,0,1,6.12,22.56c.1,2.09.24,4.51,1.93,5.74s.22,4.22,1.59,2.45,6-7.9,6.26-10.13a83.39,83.39,0,0,0,0-15.72c-.44-4.54-1.37-9.28-4.34-12.74a25.72,25.72,0,0,0-6.43-4.9c-3.36-2-6.82-4.07-10.68-4.79-6.64-1.24-10.72,1.15-4.86,5.78a40.43,40.43,0,0,1,10.43,11.75" transform="translate(40 -77.99)"/><path class="cls-5" d="M746.79,203.28c0,3.21-.62,6.55,2.22,9a9.77,9.77,0,0,0,5,2,31.13,31.13,0,0,0,13.93-1,12.51,12.51,0,0,0,5.08-2.68c1.64-1.58,1.73-3.08,1.81-5.15.09-2.42.58-4.89.9-7.34.69-5.38,1-10.8,1.16-16.22,8-1.37,17.33-3.94,20.05-12.28a27.32,27.32,0,0,0,.91-8.29q.12-17.34.25-34.67c0-4,0-8.12-1.33-11.83-2.4-6.51-8.5-10.39-14.49-12.83-15.27-6.23-33.08-6-47.18,2.88a25.74,25.74,0,0,0-9.45,9.51c-3.33,6.35-2.91,14.19-2.4,21.51l1.44,20.29c.55,7.78,1.71,16.73,7.76,20.84,3.2,2.18,7.35,2.58,10.11,5.41,4.83,4.92,2.53,12.28,4,18.25a11.66,11.66,0,0,1,.28,2.58" transform="translate(40 -77.99)"/><path class="cls-6" d="M800.65,156.73c-.13-2.14-1.06-8.42-4.29-4.47a6.45,6.45,0,0,0-1.1,3.86,14.66,14.66,0,0,1-.42,4.09c-1,3-4.28,4.32-7.21,4.27a7.08,7.08,0,0,1-3.38-.8,10.83,10.83,0,0,1-2.57-2.36L776,154.85c-3.23-3.71-9.63-2.11-14-1.54-5,.66-10,2.17-14.13,5.47-.42.33-.82.68-1.22,1a15.23,15.23,0,0,1-3.14,2.26c-3.87,1.89-8.67-.08-11.38-3.61-1.25-1.62-2.41-3.7-4.34-4a4,4,0,0,0-3.76,2.29,11.17,11.17,0,0,0-1.09,4.74,34.82,34.82,0,0,0,3,17.42c5.61,11.48,16.46,12.89,27.36,12.64l12.93-.31c7.88-.18,16.21-.51,22.85-5.09,5.86-4,9.34-10.91,10.76-18.11a44.41,44.41,0,0,0,.73-11.34M771.82,173c-4.15,2.79-8.72,2.94-13.34,1.55-2-.59-1.14-3.89.83-3.3,3.83,1.16,7.45,1.12,10.91-1.2,1.74-1.17,3.33,1.79,1.6,2.95" transform="translate(40 -77.99)"/><path class="cls-6" d="M802.3,94.1A62.13,62.13,0,0,0,804,85.57a17,17,0,0,1-8.36.71c0-1.66,0-3.32,0-5,0-1.38-18.71-2.35-20.23-2.47-14.23-1.17-27.24-2.28-40.1,5.36-11,6.52-18,16.26-19.72,28.94-1.61,12.1,2.35,27.92,9.36,38,0-3.22-1.9-10.83-1.14-13.89a27.62,27.62,0,0,1,3-8.77,36.17,36.17,0,0,1,12.68-13.32c8.34-5.23,18-8,27.72-9.34,8.87-1.24,19.68-2.38,28.44,0,4.21,1.13,4.91,2.19,7.47-2.06.44-.75,4-9.51,3.66-9.51l-4.43-.07" transform="translate(40 -77.99)"/><path class="cls-8" d="M1079.53,308.72,761.82,340.3,444.11,308.72a14.64,14.64,0,0,0-16,15.54L441.38,638.6a14.62,14.62,0,0,0,13.05,13.72c52.28,5.38,256.28,25.74,279.15,28.34a3.44,3.44,0,0,1,2.7,1.86c1.54,3,7.05,9.11,25.54,9.11s24-6.12,25.54-9.11a3.44,3.44,0,0,1,2.7-1.86c22.87-2.6,226.87-23,279.15-28.34a14.62,14.62,0,0,0,13-13.72l13.26-314.34a14.64,14.64,0,0,0-16-15.54" transform="translate(40 -77.99)"/><path class="cls-9" d="M1079.53,303.52,761.82,335.1,444.11,303.52a14.64,14.64,0,0,0-16,15.54L441.38,633.4a14.62,14.62,0,0,0,13.05,13.72c52.28,5.37,256.28,25.74,279.15,28.34a3.42,3.42,0,0,1,2.7,1.86c1.54,3,7.05,9.11,25.54,9.11s24-6.12,25.54-9.11a3.42,3.42,0,0,1,2.7-1.86c22.87-2.6,226.87-23,279.15-28.34a14.62,14.62,0,0,0,13-13.72l13.26-314.34a14.64,14.64,0,0,0-16-15.54" transform="translate(40 -77.99)"/><path class="cls-10" d="M763,332.81c-146.37-97.88-293.94-53.57-293.94-53.57v340c204-41.39,292.74,44.35,292.74,44.35s88.74-85.74,292.74-44.35v-340S909.39,234.93,763,332.81" transform="translate(40 -77.99)"/><path class="cls-11" d="M469.08,279.24s-6.55,25.87-29.29,41.39l14.64,324.83s14.65-11.45,14.65-26.24Z" transform="translate(40 -77.99)"/><path class="cls-11" d="M1054.56,279.24s6.55,25.87,29.29,41.39l-14.64,324.83s-14.65-11.45-14.65-26.24Z" transform="translate(40 -77.99)"/><path class="cls-12" d="M454.43,645.46S657.92,598.9,748.9,680.94h12.92V663.57S670,576.36,469.08,619.22Z" transform="translate(40 -77.99)"/><path class="cls-12" d="M1069.21,645.46S865.72,598.9,774.74,680.94H761.82V663.57s91.84-87.21,292.74-44.35Z" transform="translate(40 -77.99)"/><path class="cls-13" d="M610.18,258.44c-17.63-1.75-35.13-2.45-51.8-2.62-7.68-.08-70.86,2.33-70.86,4.48V602.41c0-2.16,63.33-4.56,71-4.48,54.39.57,115.51,10.53,163.6,37.08,8,4.44,40.63,21.9,40.63,34.16v-333a26.82,26.82,0,0,0-7.18-18.32c-36.52-39.08-91.6-54.12-145.42-59.44" transform="translate(40 -77.99)"/><path class="cls-7" d="M915.37,258.44c17.64-1.75,35.14-2.45,51.8-2.62,7.68-.08,70.86,2.33,70.86,4.48V602.41c0-2.16-63.32-4.56-71-4.48-54.4.57-115.51,10.53-163.61,37.08-8,4.44-40.62,21.9-40.62,34.16v-333A26.82,26.82,0,0,1,770,317.88c36.51-39.08,91.59-54.12,145.41-59.44" transform="translate(40 -77.99)"/><g class="cls-14"><g class="cls-15"><path class="cls-16" d="M915.37,258.44c17.64-1.75,35.14-2.45,51.8-2.62,7.68-.08,70.86,2.33,70.86,4.48V602.41c0-2.16-63.32-4.56-71-4.48-54.4.57-115.51,10.53-163.61,37.08-8,4.44-40.62,21.9-40.62,34.16v-333A26.82,26.82,0,0,1,770,317.88c36.51-39.08,91.59-54.12,145.41-59.44" transform="translate(40 -77.99)"/></g></g><g class="cls-14"><g class="cls-17"><path class="cls-16" d="M762.78,352.66V669.18c0-12.27,32.59-29.73,40.62-34.17C842,613.72,888.9,603.12,934,599.45h0C794.93,539,767.6,391.13,762.78,352.66" transform="translate(40 -77.99)"/></g></g><path class="cls-5" d="M859.65,293.62a5.52,5.52,0,0,1-1.09-.86c-2.69-3-2-5.93-3.68-9.44-.74-1.57-5.64-2.56-3.32-5.31.85-1,3.37-3.23,5.22-5.37,3.37-3.9.23-9.57,3.73-13.95,3-3.77,13.89-7.24,17.7-1.71,1.43,2.08-.56,5.42-.25,7.68.47,3.46,3.26,5.77,4.52,9a25.53,25.53,0,0,1,1.58,9.77c-.33,5.83-6.23,8.91-11,12.06a7.43,7.43,0,0,1-3.43,1.49c-2.31.3-4.36-.65-6.43-1.53a22.4,22.4,0,0,1-3.51-1.82" transform="translate(40 -77.99)"/><path class="cls-4" d="M890.76,277c4.53-2.2,6.84-7.78,6-12.75s-4.29-9.23-8.56-11.9S879,248.42,874,247.69c-5.91-.86-12.23-1-17.51,1.81a29,29,0,0,0-7.64,6.33c-1.53,1.66-3.08,3.61-3,5.85a8.27,8.27,0,0,0,1.94,4.34c6.17,8.45,8.45,8.11,18,7.59,8.45-.46,16.9,1.21,25,3.39" transform="translate(40 -77.99)"/><path class="cls-5" d="M651,285.17a5.68,5.68,0,0,0,1.22-.66c3.15-2.57,3-5.52,5.18-8.72,1-1.42,6-1.6,4.15-4.69-.68-1.14-2.8-3.74-4.27-6.15-2.68-4.41,1.35-9.48-1.4-14.38-2.35-4.21-12.5-9.42-17.17-4.59-1.75,1.81-.34,5.44-1,7.62-1,3.34-4.17,5.16-5.94,8.12a25.56,25.56,0,0,0-3.16,9.38c-.63,5.8,4.68,9.81,8.91,13.71a7.51,7.51,0,0,0,3.14,2c2.23.68,4.41.08,6.59-.45a23.27,23.27,0,0,0,3.76-1.22" transform="translate(40 -77.99)"/><path class="cls-4" d="M623.08,263.67c-4.11-2.91-5.47-8.79-3.85-13.56s5.75-8.4,10.4-10.34,9.8-2.36,14.83-2.26c6,.12,12.22,1.06,17,4.66a28.92,28.92,0,0,1,6.5,7.51c1.23,1.88,2.44,4,2,6.25a8.31,8.31,0,0,1-2.62,4c-7.47,7.31-9.67,6.61-19,4.53-8.26-1.83-16.87-1.58-25.24-.76" transform="translate(40 -77.99)"/><polygon class="cls-18" points="470.99 440.87 471.99 440.92 473.61 410.21 472.6 410.16 470.99 440.87"/><path class="cls-5" d="M422,208.1l35.6,7.87-.91-5.09c-2.76-15.32,0-33.77,6.07-48.49l-1.52-.92-33.5-16.79Z" transform="translate(40 -77.99)"/><path class="cls-8" d="M458.92,214.39c-6-1-11.75-3.34-17.49-5.22L425.3,203.9c-.85-.28-1.35,1.37-.5,1.65l17.42,5.71c5.45,1.78,10.89,4,16.56,4.87.89.14,1-1.6.14-1.74" transform="translate(40 -77.99)"/><path class="cls-8" d="M427.93,147a236,236,0,0,1,35.45,17.11c1.18.71,2.45-1.54,1.25-2.24a238.69,238.69,0,0,0-35.95-17.4c-1.27-.48-2,2-.75,2.53" transform="translate(40 -77.99)"/><path class="cls-5" d="M430.79,394.75l35.07-3.33-1.47,3.91c-4.43,11.75-4,26.33.05,38.18l-1.55.61L429,444.81Z" transform="translate(40 -77.99)"/><path class="cls-8" d="M466.91,392.76c-5.8.28-11.6,1.67-17.31,2.69l-16.13,2.87c-.85.15-1.14-1.19-.29-1.34l17.42-3.1c5.42-1,10.87-2.23,16.38-2.49.87,0,.79,1.33-.07,1.37" transform="translate(40 -77.99)"/><path class="cls-8" d="M429.45,443a269.52,269.52,0,0,0,35.76-10.8c1.2-.46,2.14,1.36.92,1.83a274.06,274.06,0,0,1-36.25,11,1,1,0,0,1-.43-2" transform="translate(40 -77.99)"/><path class="cls-19" d="M443.07,295.44a35.29,35.29,0,0,1,7.51-6.4c1.11-.7,2,1.14.93,1.83a32.57,32.57,0,0,0-6.43,5.4,63.83,63.83,0,0,0,6,6.75c.93.92-.57,2.29-1.51,1.38a62.49,62.49,0,0,1-6.55-7.51,1.08,1.08,0,0,1,.07-1.45" transform="translate(40 -77.99)"/><path class="cls-19" d="M431.37,294.4c1.48-2,4.14-3.74,6-5.41a1,1,0,0,1,1.35,1.53c-1.61,1.41-3.88,2.84-5.31,4.52a29.51,29.51,0,0,0,2.74,2.74l3.08,3.21c.91.94-.6,2.32-1.5,1.38-1.24-1.28-2.47-2.57-3.7-3.85a13.92,13.92,0,0,1-2.76-3.08,1,1,0,0,1,.06-1" transform="translate(40 -77.99)"/><path class="cls-19" d="M425.48,286.15a1,1,0,0,1,1.35,1.52c-.58.53-1.78,2.41-.43,2.75s.62,2.27-.64,1.95a2.74,2.74,0,0,1-2-2.81,4.8,4.8,0,0,1,1.68-3.41" transform="translate(40 -77.99)"/><rect class="cls-19" x="441.18" y="327.8" width="13.96" height="3.65" transform="translate(135.98 682.3) rotate(-87.06)"/><rect class="cls-19" x="429.73" y="327.21" width="13.96" height="3.65" transform="matrix(0.05, -1, 1, 0.05, 125.71, 670.31)"/><path class="cls-5" d="M418.17,385.59c-3.33-1.84-8.39-2.23-12.46-4.26-2-1-2.12-5.65-6.31-3.39-1.55.84-4.14,3.22-7.1,4.77-4.32,2.28-10.78,2.91-16.38,2.36-22-2.12-44-3.84-66.24-3.4a7.11,7.11,0,0,1-3.66-.53c-2-1.1-2.56-3.23-3.29-5.29-3.41-9.56-7.09-18.89-12.28-27.68-4.63-7.85-9.87-15.21-17.57-20.23s-17.27-6.84-25.54-3.05c-6.18,2.83-11,8-11.51,14.83-1.31,17,15.47,27.64,26,38.2,10,10,18.53,18.45,28.83,27.48a11.53,11.53,0,0,0,4.13,2.67,12.22,12.22,0,0,0,5.18.12c21.94-2.94,43.25-6.37,65.3-4.5,6.06.52,11.3-1.38,17.1-.16,3.69.77,6,4.07,9.44,5.36s7.53,2.54,11.22,2.35c8.12-.43,16.48-8.29,18.26-16.36,1.15-5.26-.41-7.77-3.16-9.29" transform="translate(40 -77.99)"/><path class="cls-20" d="M261.39,371.82c11.81-6.17,24.44-10.6,35.82-17.72-5.65-10-23.45-51.18-26.24-56-10.66-18.52-13.29-26.74-26-35.67-27.11-19.07-54.4-1-49.44,30.14,5.38,33.77,27.06,60.7,49.92,84.56a3.74,3.74,0,0,0,1.91,1.08,4.39,4.39,0,0,0,2.74-.69c3.67-2,7.55-3.71,11.28-5.66" transform="translate(40 -77.99)"/><path class="cls-5" d="M284.34,842.92c4.36,0,8.52-1.1,12.79-1.64.84-42.51-4.6-86.86-7.71-129.45l-32.65,2.8a382.13,382.13,0,0,1,18.44,69.59c.62,3.76,8.51,58.7,9.13,58.7" transform="translate(40 -77.99)"/><path class="cls-6" d="M298.18,833c2.68-.57,4.31.58,6.15,2.16,1.08.92,1.83,2.24,3.11,2.89a9.82,9.82,0,0,0,4,.83c7.89.54,26-.37,16.77,13.09-8.38,12.23-31.82,8.23-45.37,5.41a4.55,4.55,0,0,1-2.5-.95,6.32,6.32,0,0,1-1.45-2.62c-1.71-5.58-4-12.53,2.8-15.11,2.91-1.09,5.69.77,8.78-.41,2.53-1,5-4.73,7.7-5.29" transform="translate(40 -77.99)"/><path class="cls-6" d="M314.69,736.64,248,737.5q-31.11-127.57-55.81-256.59c-1.27-6.66-2.53-13.6-.8-20.16,3.25-12.42,16.2-19.86,28.73-22.62,19.48-4.3,55.66-.36,66.36,19.7,11.32,21.19,10.77,59.71,14.11,83.42a1446.74,1446.74,0,0,1,14.15,195.39" transform="translate(40 -77.99)"/><path class="cls-5" d="M157.19,847c-4.36.29-8.58-.55-12.87-.81-3.58-42.37-1-87-.63-129.68l32.77.69a381,381,0,0,0-13.93,70.64c-.38,3.79-4.72,59.12-5.34,59.16" transform="translate(40 -77.99)"/><path class="cls-6" d="M142.73,838c-2.7-.39-4.25.85-6,2.55-1,1-1.68,2.36-2.91,3.08a10,10,0,0,1-4,1.09c-7.84,1-26,1.3-15.89,14.15,9.15,11.66,32.28,6.15,45.63,2.48a4.77,4.77,0,0,0,2.43-1.11,6.29,6.29,0,0,0,1.27-2.72c1.36-5.67,3.23-12.75-3.76-14.89-3-.91-5.63,1.13-8.79.15-2.58-.8-5.32-4.39-8-4.78" transform="translate(40 -77.99)"/><path class="cls-6" d="M120.07,742.9l66.66-3.43q22.85-129.32,39.2-259.65c.84-6.73,1.65-13.73-.49-20.17-4.05-12.18-17.45-18.78-30.13-20.73-19.72-3-55.56,3.23-65,23.93-9.93,21.87-6.91,60.28-8.72,84.16a1447,1447,0,0,0-1.56,195.89" transform="translate(40 -77.99)"/><path class="cls-3" d="M162,271.56c-17.28,17.54-29.93,39.76-37.25,62.6-13,40.43-11.85,83.12-10.64,125q.6,20.88,1.21,41.77c.4,13.69,1.71,16.6,16.53,14.32,27.48-4.23,56-10.84,80.57-23.9,11.7-6.22,22.58-13.94,34.9-18.94,17.92-7.26,36.62-4.84,54.42-9.76-8.55-23.3-14.77-43.18-19.55-67.31-4.92-24.85-9.53-52-16.36-76.43-4.1-14.68-11.27-28.28-18.56-41.66-4.9-9-10.07-18.19-18.1-24.54-24.19-19.15-50,1.43-67.17,18.9" transform="translate(40 -77.99)"/><path class="cls-5" d="M224.41,210.85c-3.13,7.46-8.43,13.77-12.71,20.65-4.16,6.69-5.54,12.66-6.45,20.29-.66,5.51-2.48,9.86-9.06,11C183.79,265,187,254.57,184,247.17c-3.51-8.46-10.63-15-15.69-22.48-14.64-21.63-12.07-65.39,16.58-75.64,31.33-11.2,49.07,39.14,39.57,61.8" transform="translate(40 -77.99)"/><path class="cls-6" d="M173.26,191.11c-3.59.26-7.53.67-10.12,3.17s-2.13,7.75,1.41,8.21c3.21.41,7.23-3.05,9.25-.68,1.19,1.38.26,3.49-.55,5.18a30.31,30.31,0,0,0-2.1,20.64c-1.28,1.26-3.36.06-4.56-1.17a66.19,66.19,0,0,1-13.82-21.13,13.15,13.15,0,0,1-4.67,4.82c1.1-3,.24-6.25-.6-9.26-3.06-11.08-5.32-24.11,2.18-33.48,4-5,10.27-8,16.62-9.42s12.85-1.31,19.29-1.22c2.76,0,6.17.52,6.91,3-6,2.61-12.05,7.53-14.89,13.34-.87,1.78-4,17.93-4.35,18" transform="translate(40 -77.99)"/><path class="cls-6" d="M185.15,163.86l-.63.51c-2.67,2.17-5.15,4.78-8.43,5.81-4.73,1.49-9.93-.65-14.58,1.13-5.19,2-8.44,8.37-12.15,12.21a55.5,55.5,0,0,1-22,13.84,56.35,56.35,0,0,1-13.09,2.78c-2,.18-4.71.65-6.69.18-2.67-.63-2.62-1.83.17-2.83,8.74-3.11,11.12-15.61,10.18-23.82-.73-6.48-3.19-13.2-.91-19.3,1.75-4.67,5.73-7.18,9.58-9.94,4.24-3,9-2.41,13.83-4,5.09-1.62,9.14-5.79,14.34-7,5.49-1.27,11.1,1,16.66,1.9a34.32,34.32,0,0,0,13.87-.62c4-1,8-2.8,12.14-2.9,6.15-.14,11.93,3.52,15.68,8.4,5.31,6.9,9,18.89,7.49,28.25.23-1.45-4.8-6.53-5.83-7.62-2.19-2.31-4.81-4.45-8-4.73-7.32-.64-15.84,3.27-21.57,7.71" transform="translate(40 -77.99)"/><path class="cls-21" d="M436.7,442.23s-5.76,32.55-.75,47l-12.37.49,2.32-52.11Z" transform="translate(40 -77.99)"/><path class="cls-21" d="M424,484.09c3.48.44,7,.72,10.48.85.57,0,.49.94-.07.93-3.51-.14-7-.42-10.48-.86-.56-.07-.49-1,.07-.92" transform="translate(40 -77.99)"/><path class="cls-21" d="M424.39,479.18l9.36,1c.56,0,.49,1-.07.92l-9.36-1c-.56-.06-.49-1,.07-.93" transform="translate(40 -77.99)"/><path class="cls-21" d="M424.73,475c2.32.61,3.74,1,8.95.75.56,0,.48.91-.08.92a41.91,41.91,0,0,1-8.94-.75c-.55-.1-.48-1,.07-.92" transform="translate(40 -77.99)"/><path class="cls-21" d="M424.31,469a68.81,68.81,0,0,0,9.14,1.27c.56,0,.49,1-.07.92a70.24,70.24,0,0,1-9.14-1.26c-.55-.12-.48-1,.07-.93" transform="translate(40 -77.99)"/><path class="cls-21" d="M425,463.73q4.47.52,8.95.78c.56,0,.49.95-.08.92q-4.48-.26-8.94-.78c-.56-.06-.49-1,.07-.92" transform="translate(40 -77.99)"/><path class="cls-21" d="M425.63,458.45c2.88.45,5.78.78,8.69,1a.46.46,0,0,1-.07.92c-2.91-.22-5.81-.56-8.7-1-.55-.09-.48-1,.08-.93" transform="translate(40 -77.99)"/><path class="cls-21" d="M425.89,452.45c3.1.56,6.21,1,9.33,1.28a.41.41,0,0,1,.23.1.41.41,0,0,0,0,.11c-.06.23-.1.46-.14.69a.66.66,0,0,1-.15,0q-4.69-.45-9.33-1.29c-.55-.1-.48-1,.07-.92" transform="translate(40 -77.99)"/><path class="cls-21" d="M425.93,446.47l9.14,1c.56.07.48,1-.08.93l-9.14-1c-.55-.06-.48-1,.08-.92" transform="translate(40 -77.99)"/><path class="cls-22" d="M221.67,545.83l221.68,11.42a.53.53,0,0,0,.55-.5l1.94-37a.51.51,0,0,0-.49-.55L223.67,507.76a.52.52,0,0,0-.54.5l-1.94,37a.52.52,0,0,0,.48.55" transform="translate(40 -77.99)"/><polygon class="cls-6" points="444.31 477.25 467.61 478.45 469.61 440.37 446.31 439.17 444.31 477.25"/><polygon class="cls-6" points="433.75 476.71 438.93 476.98 440.93 438.9 435.75 438.63 433.75 476.71"/><path class="cls-6" d="M375.06,534.64a6.62,6.62,0,1,0,7-6.4,6.69,6.69,0,0,0-7,6.4" transform="translate(40 -77.99)"/><path class="cls-9" d="M221.82,508.08,443.51,519.5a.53.53,0,0,0,.54-.5l1.56-29.66a.52.52,0,0,0-.49-.55L223.44,477.37a.52.52,0,0,0-.54.5l-1.56,29.66a.51.51,0,0,0,.48.55" transform="translate(40 -77.99)"/><polygon class="cls-18" points="456.86 418.07 456.16 431.38 449.46 425.09 456.86 418.07"/><polygon class="cls-18" points="447.88 418.89 447.31 429.64 441.91 424.56 447.88 418.89"/><polygon class="cls-18" points="466.25 440.62 467.26 440.68 468.87 409.96 467.86 409.91 466.25 440.62"/><path class="cls-18" d="M376.18,148.8l15.93,5.32-.34-3.78c-1-11.37.54-25.16,3.49-36.22l-.67-.66-14.84-12Z" transform="translate(40 -77.99)"/><polygon class="cls-23" points="326 67.61 417.46 68.7 432.49 75.96 333.44 74.99 326 67.61"/><path class="cls-24" d="M392.72,152.92c-2.68-.63-5.25-2.31-7.81-3.62l-7.19-3.68c-.38-.2-.63,1-.25,1.23l7.77,4c2.43,1.25,4.85,2.78,7.39,3.38.4.09.48-1.21.09-1.3" transform="translate(40 -77.99)"/><path class="cls-24" d="M379.79,103.18A90.42,90.42,0,0,1,395.5,115.4c.53.5,1.13-1.19.61-1.7a93,93,0,0,0-15.94-12.41c-.57-.34-.94,1.55-.38,1.89" transform="translate(40 -77.99)"/><path class="cls-4" d="M288.37,100.85l92.13.62-1.1,10.17c-.89,8.23-1.46,16.49-1.7,24.69l-.23,10.36L286,145.6,286,145a161.81,161.81,0,0,1,2.42-44.13" transform="translate(40 -77.99)"/><path class="cls-9" d="M366.61,102.4c.23-1.29,2.24-1.13,2,.18A154,154,0,0,0,367,143.87c.13,1.32-1.86,1.7-2,.38a156.1,156.1,0,0,1,1.62-41.85" transform="translate(40 -77.99)"/><path class="cls-9" d="M299.39,102.45c.24-1.29,2.25-1.11,2,.2a153.9,153.9,0,0,0-2,41.27c.11,1.32-1.88,1.68-2,.36a156,156,0,0,1,2-41.83" transform="translate(40 -77.99)"/><polygon class="cls-6" points="261.71 121.73 464.78 127.34 498.46 137.77 278.57 131.99 261.71 121.73"/><path class="cls-25" d="M224.89,139.72l204.54,5-2,13.62a256.11,256.11,0,0,0-2.62,33.09l-.05,13.89-203.07-5.6-.14-.83A132.13,132.13,0,0,1,224.89,139.72Z" transform="translate(40 -77.99)"/><path class="cls-19" d="M239,477.84l187.59,9.67,2.37-45.06-187.6-9.66-.21.61A77.91,77.91,0,0,0,239,477.84" transform="translate(40 -77.99)"/><rect class="cls-8" x="372.91" y="450.19" width="45.11" height="26.25" transform="translate(-47.59 756.43) rotate(-87.05)"/><polygon class="cls-6" points="267.54 306.92 473.13 319.17 506.64 313.67 286.3 299.92 267.54 306.92"/><path class="cls-22" d="M224.94,434.3l205.69,10.59-.34-10.73a162.46,162.46,0,0,1,1.29-26.08l1.56-10.93L227.54,384.9l-.24.67a85.38,85.38,0,0,0-2.36,48.73" transform="translate(40 -77.99)"/><path class="cls-22" d="M247.57,382.79l194.93,10a.52.52,0,0,0,.54-.5l2.4-45.64a.52.52,0,0,0-.49-.55L250,336.1a.52.52,0,0,0-.54.5l-2.4,45.63a.53.53,0,0,0,.48.56" transform="translate(40 -77.99)"/><path class="cls-22" d="M224.82,301.64l241,12.41a.5.5,0,0,0,.54-.49l1.74-33a.52.52,0,0,0-.49-.55l-241-12.41a.51.51,0,0,0-.54.5l-1.74,33a.52.52,0,0,0,.49.55" transform="translate(40 -77.99)"/><path class="cls-22" d="M265.25,270.19l153.61,7.91,3.54-67.32-153.61-7.91-.76,3.72a203.56,203.56,0,0,0-3.14,59.82Z" transform="translate(40 -77.99)"/><polygon class="cls-18" points="411.38 197.22 441.86 198.79 445.35 132.36 414.87 130.79 411.38 197.22"/><rect class="cls-22" x="355.24" y="234.22" width="66.52" height="17.14" transform="translate(166.05 540.29) rotate(-87.05)"/><g class="cls-26"><g class="cls-27"><polygon class="cls-28" points="462.38 133.17 308.77 125.25 305.71 142.48 462.18 136.81 462.38 133.17"/></g></g><g class="cls-29"><g class="cls-30"><path class="cls-9" d="M339.94,121.91a10.42,10.42,0,1,0,10.95-10.08,10.51,10.51,0,0,0-10.95,10.08" transform="translate(40 -77.99)"/></g></g><path class="cls-19" d="M414,290.81a1,1,0,0,1,1.12-.37,4,4,0,0,1,4.54,6.44,3.84,3.84,0,0,1-5.34,0,4.56,4.56,0,0,1-.32-6.08m1.61,4.5a1.85,1.85,0,0,0,2.7,0,2,2,0,0,0-2.35-3.05,1,1,0,0,1-.57.1,2.39,2.39,0,0,0,.22,2.91" transform="translate(40 -77.99)"/><rect class="cls-19" x="252.4" y="359.67" width="46.93" height="2.33" transform="translate(-58.72 539.73) rotate(-87.04)"/><rect class="cls-19" x="242.99" y="359.19" width="46.93" height="2.33" transform="translate(-67.18 529.85) rotate(-87.04)"/><g class="cls-31"><g class="cls-32"><path class="cls-28" d="M429,444.81,240.56,435.1s-1.46,4.54-2.06,7.59L428.75,446Z" transform="translate(40 -77.99)"/></g></g><path class="cls-6" d="M235.54,335.76l241,12.41a.51.51,0,0,0,.54-.49l1.73-33a.52.52,0,0,0-.48-.55l-241-12.41a.53.53,0,0,0-.54.5l-1.73,33a.51.51,0,0,0,.48.55" transform="translate(40 -77.99)"/><path class="cls-18" d="M223.94,301l241.67,12.78a1.12,1.12,0,0,0,1.16-1.31l-242-14.72Z" transform="translate(40 -77.99)"/><path class="cls-19" d="M224.9,299.55l241.67,12.78a1.13,1.13,0,0,0,1.16-1.32l-242-14.71Z" transform="translate(40 -77.99)"/><path class="cls-21" d="M433.09,216.78s-9.44,42.32-1.83,60.4l-12.4.92,3.52-67Z" transform="translate(40 -77.99)"/><path class="cls-5" d="M255.46,440.65a4.87,4.87,0,0,0-.59-1.16c-2.43-3.1-5.55-3.26-8.73-5.57-1.42-1-1.17-5.52-4.58-4.21-1.26.48-4.18,2.11-6.86,3.17-3.9,1.55-9.78,1.14-14.39,0A134.36,134.36,0,0,1,201.75,427c-6.11-2.59-12.09-5.5-17.93-8.64-4.87-2.63-12.56-5.56-16.31-9.67-6.34-7,.18-24.59.69-33.54.54-9.33-1.15-36.69-13.73-37.06-20.6-.61-20.3,18.94-20.71,34.7a202.18,202.18,0,0,0,1.3,29.62c1.68,13.69,10.83,21.26,22.79,27.38,12.68,6.48,25.65,12.83,39.47,16.48,6.72,1.78,13.29,2.17,20.12,3.05s6,3.82,11.69,6.1c3.19,1.26,6.19,3.16,9.57,3.82,6.06,1.18,10.75-3.15,15.22-6.52a6.72,6.72,0,0,0,2.42-2.59c.9-1.93.46-3.94.09-6a18.14,18.14,0,0,0-1-3.5" transform="translate(40 -77.99)"/><path class="cls-20" d="M134.31,378.07l35.1,5.63c-.75-.12,11.77-52.56,12.41-55.7,2.44-12,4.88-24.48,2.08-36.41-6-25.48-18.55-31.39-33.26-3.95-13.88,25.91-35.95,57.1-30.45,85.9a2.81,2.81,0,0,0,3,2.74Z" transform="translate(40 -77.99)"/><path class="cls-5" d="M1264.6,339.43a5,5,0,0,0-1.43-.47c-4.54-.58-7.25,1.84-11.75,2.54-2,.3-5.49-3.6-7.23.27-.64,1.43-1.72,5.15-3.06,8.21-2,4.47-7.13,8.94-11.89,11.74-18.73,11-39.92,16.56-61,21.42a7.78,7.78,0,0,1-3.67.24c-2.14-.55-3.38-2.72-4.42-4.67A165.87,165.87,0,0,0,1143.17,353c-5.73-7.15-12.25-14-20.5-17.95s-18.55-4.68-26.33.16a21.73,21.73,0,0,0-10.06,17.05c-.88,17,21.5,27.79,33.2,36.49a295.2,295.2,0,0,0,34.84,22.28,12.58,12.58,0,0,0,4.74,1.8,12.9,12.9,0,0,0,5.31-1c22.12-7.55,43.45-17,64.7-27,5.83-2.73,9.49-8.18,14.92-10.66,3.46-1.59,7.31-.34,10.9-1.11a35.56,35.56,0,0,0,11.06-4.68c6-4,6.29-11.38,7.21-17.81a7.74,7.74,0,0,0-.12-4.12c-.83-2.32-2.84-3.62-4.78-5a21.08,21.08,0,0,0-3.66-2.09" transform="translate(40 -77.99)"/><path class="cls-19" d="M1117.71,382.43l33.54-24c-.71.51-33.24-53-35.28-56.09-7.81-11.89-16-24.16-28-31.71-25.75-16.12-58.28,7.15-48.39,37,10.75,32.39,34.76,63.4,62.83,82.66a3.26,3.26,0,0,0,4.75-.22l10.6-7.59" transform="translate(40 -77.99)"/><polygon class="cls-5" points="1132.03 720.38 1131.54 754.9 1152 755.18 1152.55 716.9 1132.03 720.38"/><path class="cls-6" d="M1110.18,827.76l-17.79,5.88-5.31,5.71.9,13.53,48.1,3.74a10.7,10.7,0,0,0-5.36-16.27l-2.24-.77Z" transform="translate(40 -77.99)"/><polygon class="cls-5" points="984.58 687.28 971.03 719.04 989.86 727.05 1004.88 691.84 984.58 687.28"/><path class="cls-6" d="M949.5,805.64a15.42,15.42,0,0,0-2.37-2.13c-2.26-1.65-20.5-11.31-22.07-7a5,5,0,0,0-.08,2.24,166,166,0,0,0,8.74,36.76c1.84,5.08,4.64,10.7,9.89,12a15.67,15.67,0,0,0,7-.38,73.06,73.06,0,0,0,10-3,5.53,5.53,0,0,0,3.08-2.14c1.24-2.23-.92-4.88-3.17-6.09s-5-2.07-6.11-4.38a8.64,8.64,0,0,1-.63-3.35c-.46-8.5,1-16.65-4.32-22.5" transform="translate(40 -77.99)"/><path class="cls-21" d="M1073.13,638.35c-6.71,30.7-25.9,52.75-46.4,75.32a971,971,0,0,0-66.07,81.13L934,783.69c7.42-43.14,27.88-82.71,43.74-123.51,11-28.35,19.94-58.33,20.43-89,.24-15.23-3.45-29.17-5.43-44-2.45-18.36-2.59-37.17-4.8-55.61-.74-6.19-1.17-13.5,3.59-17.52,2.12-1.79,4.91-2.55,7.63-3.07,101-19.56,86.71,129,74,187.33" transform="translate(40 -77.99)"/><path class="cls-21" d="M990.86,477.38c-.05-18.62,2.22-36.57,5.71-50.26,28.72-1.54,61.19,1.64,89.6,7.4,27.76,5.64,45.08,11.68,45.28,41.79.37,55.41,22,102.6,31.38,155.86,5.43,31-4,58.63-14.36,87.29a970.89,970.89,0,0,0-30.36,100.13l-28.86-.17c-9.5-42.73-5.58-87.11-6.39-130.87-.56-30.42-3.67-61.54-14.85-90.07-12.28-31.36-30-18.88-50.28-37.07-19.74-17.68-26.77-51.86-26.87-84" transform="translate(40 -77.99)"/><path class="cls-22" d="M1023.48,264.16a76.37,76.37,0,0,0-8.71,8.36l-7.4,7.9c-8.55,9.12-12.78,22.61-16.44,34.26-19.28,61.3-26.22,145.4-13.7,209.45,47.49,4.1,102.46-7.87,149.85-14.35,4.61-.63,9.83-1.66,12.22-5.65,1.45-2.41,1.5-5.39,1.49-8.21,0-40.66-8.59-84.36-16.65-124.45a438.76,438.76,0,0,0-13-50.08c-5.69-17.37-12.1-36.11-25.41-49.25-14.24-14.05-41.51-21-59.34-10a33.43,33.43,0,0,0-2.94,2" transform="translate(40 -77.99)"/><path class="cls-5" d="M1028.66,272.7l-2.57-16.59a31.75,31.75,0,0,1-3.27-1.8c-19.81-12.65-53-80.56-.23-95.76,47.94-13.8,45.45,52.15,36.09,79.65a40.85,40.85,0,0,1-6.91,13c-2.17,2.63-2.65,2.13-2.34,5.19s3.25,6.3,3.91,9.42c.72,3.33.45,7-1.48,9.82a13.21,13.21,0,0,1-4.76,4,14.84,14.84,0,0,1-9.58,1.79c-3.87-.74-8.24-4.73-8.86-8.7" transform="translate(40 -77.99)"/><path class="cls-6" d="M1069.94,213.28c-4,13.54-7.4,18.75-12.18,24.85-10,12.77-1.69-32.5-5.83-48.2-.32-1.2-.62-2.55,0-3.61a4.34,4.34,0,0,1,3-1.59c20.19-4.37,20.13,13.26,15,28.55" transform="translate(40 -77.99)"/><path class="cls-6" d="M1016.9,237.74c-3.24,4.56-10.34,3.33-15.33.82-20.52-10.31-32.6-35.15-28.05-57.66,3.81-18.83,27.55-33,32.35-9.62,1.71,8.27-3.33,19.74-2.18,28.92,1.65,13.12,7.76,25.66,13.21,37.54" transform="translate(40 -77.99)"/><path class="cls-6" d="M1069.73,141.25c2.3.91,4.64,1.87,7.1,2.83,5.1,2,8.8,2.67,14.06-.32,1.51-.86,11.59-10.39,9.16-12.37,16.08,13.12,2.86,32.28-3.17,45.83-4.07,9.14-4.91,22-14,28-10,6.57-16.95-1.74-26.07-5.46-8-3.28-16.75-5.06-24.94-8-13.6-4.85-33.82-13.37-29.32-31.42,5.26-21.09,26.63-26.35,45.82-24.74,8.2.69,14.62,2.94,21.4,5.62" transform="translate(40 -77.99)"/><path class="cls-8" d="M1284.59,546.86,1234.87,472V217.83a4.51,4.51,0,0,1,8.26-2.5l41.46,62.41Z" transform="translate(40 -77.99)"/><polygon class="cls-7" points="1322.38 202.23 1279.69 138.88 1262.07 142.54 1313.22 206.6 1313.22 471.13 1322.38 468.87 1322.38 202.23"/><polygon class="cls-7" points="1120.96 183.14 1151.41 172.07 1313.22 206.6 1313.22 462.61 1120.96 427.98 1120.96 183.14"/><path class="cls-8" d="M1259.65,554.78,1071,528.67a9,9,0,0,1-7.25-8.81V269.05a9,9,0,0,1,10.73-8.82l185.2,25.41Z" transform="translate(40 -77.99)"/><path class="cls-9" d="M1284.59,277.74c-.47,1.89-5.19,4.78-11.37,6.85-6.67,2.23-12.59,2.66-13.49,1l-.08,0V554.08a1.14,1.14,0,0,0,0,.58v.12l0,0c.75,1.73,6.74,1.32,13.53-.94s11.91-5.6,11.37-7.43Z" transform="translate(40 -77.99)"/><polygon class="cls-10" points="1262.07 142.54 1262.07 195.68 1313.22 206.6 1262.07 142.54"/><polygon class="cls-12" points="1313.22 206.6 1165.95 168.29 1165.95 175.17 1313.22 206.6"/><polygon class="cls-4" points="1126.05 399.65 1281.52 421.16 1281.52 455.98 1126.05 434.47 1126.05 399.65"/><g class="cls-33"><g class="cls-34"><path class="cls-16" d="M1071,528.67l188.68,26.11V285.64s-24.77,204.28-188.68,243" transform="translate(40 -77.99)"/></g></g><path class="cls-5" d="M1181.74,451a5.39,5.39,0,0,0-1.13-1c-3.93-2.33-7.38-1.19-11.79-2.35-2-.52-3.59-5.49-6.73-2.64-1.16,1.06-3.64,4-6.09,6.31-3.57,3.32-10.1,5.36-15.58,6-21.55,2.6-43.21-.74-64.53-4.71a7.87,7.87,0,0,1-3.46-1.24c-1.74-1.37-2-3.85-2.19-6.06A164.86,164.86,0,0,0,1065,415c-2.4-8.84-5.66-17.69-11.64-24.63s-15.14-11.69-24.2-10.36a21.76,21.76,0,0,0-16,11.62c-7.58,15.22,8.63,34.06,15.89,46.7a295.73,295.73,0,0,0,23,34.34,12.74,12.74,0,0,0,3.64,3.53,12.9,12.9,0,0,0,5.26,1.2c23.3,1.9,46.64,1.73,70.09,1.08,6.44-.17,12-3.72,17.93-3.83,3.81-.07,6.84,2.61,10.45,3.34a35.3,35.3,0,0,0,12,.11c7.06-1.27,10.31-7.92,13.73-13.45a7.83,7.83,0,0,0,1.53-3.81c.16-2.47-1.16-4.46-2.4-6.49a21.91,21.91,0,0,0-2.52-3.37" transform="translate(40 -77.99)"/><path class="cls-3" d="M1029.88,431.84l40.35-8.65c-.86.19-9.35-61.83-10-65.5-2.41-14-5-28.54-13.06-40.28-17.18-25.05-56.3-16.69-59.13,14.62-3.07,34,6.58,72,24.63,100.85a3.28,3.28,0,0,0,4.45,1.7l12.74-2.74" transform="translate(40 -77.99)"/><path class="cls-6" d="M658.45,789.28c-1.68-14.52-9-26-22.41-32.37-10.91-5.12-23.17-6.32-35.12-7.86-26.62-3.41-52-6.83-78.91-5.77-21.49.85-34.74,19.18-44.8,37.27-6.34,11.4-4.58,16.74,3.4,26.29a96.5,96.5,0,0,0,26.27,22c19.75,11.22,50.1,8.45,71.85,6a167.94,167.94,0,0,0,58.94-18c11.79-6.16,22.41-13.42,20.78-27.56" transform="translate(40 -77.99)"/><path class="cls-6" d="M524,828.76a255.31,255.31,0,0,0-9.33,25.57c-1.4,4.59-2.68,9.32-2.51,14.12.42,11.24,12.92,19.38,21.1,9a56.46,56.46,0,0,0,8.48-15.08c3-8-3.33-3.34-8.68-5.8-6.15-2.83-6-5-3.39-10.8,3.37-7.43,7.35-12.28,6.88-20.83-.14-2.36-.8-5.1-3-6a4.77,4.77,0,0,0-4.94,1.21,13.49,13.49,0,0,0-2.83,4.54q-.91,2-1.8,4.11" transform="translate(40 -77.99)"/><path class="cls-35" d="M565.69,564.29l21.76,2.11a137,137,0,0,0,2-19.41c6.32-1.1,13.76-3.17,15.93-9.92a22.75,22.75,0,0,0,.73-6.71q.12-14,.25-28.08c0-3.24,0-6.58-1-9.58-1.9-5.28-6.74-8.43-11.48-10.41-12.11-5.07-26.23-4.9-37.43,2.26a20.69,20.69,0,0,0-7.51,7.69c-2.65,5.14-2.33,11.49-1.93,17.42L548,526.1c.43,6.3,1.34,13.55,6.13,16.89,2.54,1.77,5.83,2.1,8,4.39,3.86,4,2.09,11.2,3.51,16.91" transform="translate(40 -77.99)"/><path class="cls-6" d="M595.4,492.21a9,9,0,0,1,.77,1.59c1.05,2.89.43,6.18,1.47,9.08,1.64,4.59,7.08,7.27,8,12.07.74,3.92-1.89,7.7-2,11.69-.17,4.35,2.69,8.42,2.33,12.72-.31,3.74-2.58,9-4.75,12,.67-.93,6.92-.71,8.52-1.73,2.46-1.56,2.72-2.52,3.42-5.12s.07-5.1,1.17-7.76c1.34-3.25,4.18-5.67,5.13-9.13,1.29-4.72-1.3-9.63-1.19-14.52.16-7.41,6.43-14.5,4-21.49-1.44-4.1-5.49-6.67-7.81-10.34-1.76-2.79-2.45-6.11-3.69-9.17s-3.34-6.1-6.52-7c-1.77-.48-3.66-.24-5.47-.54-3.12-.53-5.75-2.63-8.77-3.59-4.32-1.38-11.82,3.1-14.26,6.78s-1.11,6.71,1.49,9.86c4.33,5.24,14.63,8.54,18.23,14.53" transform="translate(40 -77.99)"/><path class="cls-6" d="M533.77,472c-2.54,1.93-5.69,3.35-8,5.6-4.51,4.38-5.26,11.28-5.31,17.56-.05,5.6-2.41,10.61-1.7,16.43.48,3.91,2.22,7.84,5.44,10.1,4,2.8,10.26,3.16,12.11,7.7,2,4.94-3,11.28.18,15.54,1.76,2.35,5.15,2.64,7.64,4.19,2.78,1.74,4.25,4.9,6,7.68s4.3,5.56,7.58,5.57c0-5,.12-8.93-2.09-13.45-1.29-2.64-5-7.47-2.27-10.4,1.73-2.42,5.89-3.27,5.94-6.24,0-1.4-1-2.57-1.76-3.72A17.11,17.11,0,0,1,556,513a22.19,22.19,0,0,1,10.83-11.57c5.65-2.86,4.71-4.24,6.27-9.73,1.43-5,4.26-6.28,8.75-8.19,4-1.71,5.32-2.76,6.75-6.59,1-2.8,2.33-6.15.69-9.22-1.31-2.45-3.61-4.17-5.85-5.81-4.66-3.43-9.9-7-15.67-6.51-3.2.29-6.19,1.85-9.4,2.09-2.13.16-4.27-.28-6.42-.31a17,17,0,0,0-10.4,3.35c-2.95,2.25-2.82,4.54-4.43,7.69a11.13,11.13,0,0,1-3.33,3.76" transform="translate(40 -77.99)"/><path class="cls-6" d="M546.33,451.24c.5-3.48.06-8-3.28-9.11-1.82-.61-3.85.13-5.74-.22-4-.75-5.5-5.6-7.67-9.08a3,3,0,0,0-1.28-1.29,4.92,4.92,0,0,0-2.6.11c-4,.56-7.11-3.34-10.91-4.71A9.47,9.47,0,0,0,503,433.09c-.54,2-.4,4.1-.91,6.09-2.06,8.06-13.74,11.68-13.89,20-.1,5.62,5.49,10.9,3.45,16.13-1.31,3.35-5.54,5.69-5,9.24.36,2.29,2.82,3.8,5.13,3.73a10,10,0,0,0,6.13-2.93c2.72-2.46,4.75-5.6,7.33-8.2s6.06-4.74,9.71-4.35,6.78,3.07,10.27,2.42c2.8-.52,4.83-3.06,7.57-3.81,2.57-.71,5.26.26,7.92.37s5.89-1.33,5.92-4a6.5,6.5,0,0,1,0-1.92c.54-1.72,3.47-1.68,4-3.4-1.42-2.11-3.36-1.31-4.41-4.09-.8-2.14-.21-4.94.1-7.13" transform="translate(40 -77.99)"/><path class="cls-7" d="M585.37,557.26c10.12-1.35,20.4-3.18,28.88.51,7.18,3.13,7.06,12.2,8.67,19.06,5.31,22.69,9.3,45.65,12.43,68.73,1.49,11,4.08,22.85,4,34-.05,8.94-2.29,17.63-1.6,26.75.53,7,3.51,14.56,9.92,17.43,3.23,1.44,6.93,1.5,10.17,2.93s6,5.23,4.37,8.37a8.71,8.71,0,0,1-3.79,3.21l-24,13.38c-6.11,3.41-12.25,6.83-18.84,9.19-9.32,3.35-19.3,4.49-29.19,5a240.42,240.42,0,0,1-76-8.34c-13.28-3.67-26.12-10.17-22.89-25.2,3.31-15.47,9.73-30.9,16.65-45.07,8.37-17.14,10.85-37.81,16.78-55.9,6-18.34,12.37-36.56,18.78-54.77,0-.06,0-.13.07-.2,2.34-6.66,3.3-13.24,8.46-18.64,7.06-7.38,10.45-1.51,18.47,0,5.81,1.09,12.2.43,18.65-.43" transform="translate(40 -77.99)"/><path class="cls-35" d="M610.22,838l6.92.37c2.5.13,5.29.17,7.16-1.51,2.27-2,2-5.91.17-8.35s-4.81-3.75-7.72-4.68c-7-2.26-14.47-2.95-21.85-3.24a5.2,5.2,0,0,0-2.19.23,4.49,4.49,0,0,0-2.28,3c-4.19,12.72,10.84,13.74,19.79,14.22" transform="translate(40 -77.99)"/><path class="cls-35" d="M521.56,859.61a5.52,5.52,0,0,0,.2,3,4.11,4.11,0,0,0,1.54,1.61c4.75,3,11.14-.24,14.78-4.54s6.1-9.75,10.74-12.94c10.62-7.32.9-20.72-10.2-17.64-13,3.58-15.68,19.15-17.06,30.46" transform="translate(40 -77.99)"/><path class="cls-6" d="M664.69,790.64c9.17-6.74,18.36-14.38,21.72-25.73S685,737.52,673.19,731c-14.42-8-28.6,1.82-38.88,11.08-21.08,19-44,35.69-66.5,53-7.59,5.86-33.92,27.42-33.92,27.42-.72,3,13.43,30.53,17.18,29.53,41-10.84,80.81-37.28,113.62-61.39" transform="translate(40 -77.99)"/><path class="cls-6" d="M458.52,803.7c-9-4.38-18-9.64-21.56-20.14s.48-27.78,11.61-37.4c13.56-11.73,27.42-5.58,37.54,1,20.74,13.5,43.23,24.32,65.24,35.85,7.44,3.9,33.29,18.67,33.29,18.67.79,2.85-11.92,34-15.54,34-39.52-.24-78.45-16.4-110.58-32" transform="translate(40 -77.99)"/><path class="cls-6" d="M594.78,843.52a257.59,257.59,0,0,0,25.36,10.69c4.57,1.64,9.27,3.17,14.13,3.23,11.37.14,20.21-12.08,10.13-20.85a57.28,57.28,0,0,0-14.81-9.32c-7.93-3.42-3.54,3.2-6.29,8.48-3.16,6.08-5.37,5.82-11.07,2.89-7.34-3.77-12-8-20.69-8-2.39,0-5.19.55-6.24,2.71a4.83,4.83,0,0,0,1,5,13.72,13.72,0,0,0,4.44,3.08c1.34.68,2.7,1.36,4.06,2" transform="translate(40 -77.99)"/><path class="cls-35" d="M713.31,692.14a6.2,6.2,0,0,1-.24-1.64c.26-5,3.39-7.47,5-12.2.72-2.11-2.84-6.61,1.68-7.75,4.68-1.17,13.74-.38,16.91-4.66,1.4-1.9,3.13-4.39,5.41-3.82a4.58,4.58,0,0,1,2,1.3c19.16,18.54.53,40.86-20.35,40.16a8.39,8.39,0,0,1-4.41-.92c-2.35-1.34-3.37-3.76-4.47-6.13a23.39,23.39,0,0,1-1.55-4.34" transform="translate(40 -77.99)"/><path class="cls-7" d="M750,695.47c4.74,2,10.57,0,13.82-4s4.16-9.53,3.32-14.6-3.26-9.76-6.07-14.07c-3.33-5.1-7.53-10-13.22-12.18a29.8,29.8,0,0,0-10-1.56c-2.3,0-4.83.08-6.48,1.68a8.38,8.38,0,0,0-2,4.42c-2.29,10.43-.49,12,6.34,18.88,6.06,6.15,10.5,13.75,14.33,21.43" transform="translate(40 -77.99)"/><path class="cls-10" d="M435.42,581.24v-16s85.89-8,137.54,26.42Z" transform="translate(40 -77.99)"/><path class="cls-7" d="M417.83,579.54l11.5-8.87s70.24-13.42,143.63,21V782.59s-49.76-35.78-155.13-21.73Z" transform="translate(40 -77.99)"/><path class="cls-10" d="M710.5,581.24v-16s-85.89-8-137.54,26.42Z" transform="translate(40 -77.99)"/><path class="cls-7" d="M728.09,579.54l-11.5-8.87s-70.24-13.42-143.63,21V782.59s49.76-35.78,155.13-21.73Z" transform="translate(40 -77.99)"/><path class="cls-8" d="M573,591.55c8-.44,14.1-2.34,14.43-4.65a.32.32,0,0,1,.13-.15l-.12,0,.41-.1c2.28-1,13-3.16,16.27-3.86l.69-.15.13,0a247.06,247.06,0,0,1,27.62-5.23c35.27-5.52,61.15-4.53,75.71-2.4a77.83,77.83,0,0,1,15.8,3.5,18.61,18.61,0,0,1,2.61,1.11h0a10.86,10.86,0,0,1,4.33,4c1.51,2.44,1.58,4.83,1.58,7.59V759.73c0,4.76-3.93,9.48-8.61,8.61a273.36,273.36,0,0,0-70.29-3.84,292.62,292.62,0,0,0-56.39,9.25c-6,1.63-13.5,2.91-19,5.87a6.15,6.15,0,0,1-1.7.61,6.25,6.25,0,0,1-1.16.11,6.08,6.08,0,0,1-1.35-.16l-1.34-.48a6,6,0,0,1-3.35-5.4V595.66c0-1.43,1.26-2.81,3.58-4.11" transform="translate(40 -77.99)"/><path class="cls-8" d="M573,591.55c-8-.44-14.09-2.34-14.42-4.65,0,0-.06-.09-.14-.15l.12,0-.41-.1c-2.27-1-13-3.16-16.26-3.86l-.69-.15-.13,0a246.8,246.8,0,0,0-27.63-5.23c-35.26-5.52-61.14-4.53-75.7-2.4a77.68,77.68,0,0,0-15.8,3.5,19.26,19.26,0,0,0-2.62,1.11h0a10.79,10.79,0,0,0-4.33,4c-1.51,2.44-1.59,4.83-1.59,7.59V759.73c0,4.76,3.94,9.48,8.62,8.61a273.34,273.34,0,0,1,70.29-3.84,292.4,292.4,0,0,1,56.38,9.25c6,1.63,13.5,2.91,19,5.87a6,6,0,0,0,1.7.61,6.23,6.23,0,0,0,1.15.11,5.94,5.94,0,0,0,1.35-.16l1.34-.48a6,6,0,0,0,3.35-5.4V595.66c0-1.43-1.25-2.81-3.58-4.11" transform="translate(40 -77.99)"/><g class="cls-36"><g class="cls-37"><path class="cls-16" d="M558.52,620.68S541.39,732.14,435.42,766.2h0a273.17,273.17,0,0,1,56.88-1.7,292.4,292.4,0,0,1,56.38,9.25c6,1.63,13.5,2.91,19,5.87a6,6,0,0,0,1.7.61,6.23,6.23,0,0,0,1.15.11,5.94,5.94,0,0,0,1.35-.16l1.34-.48a6,6,0,0,0,3.35-5.4V620.68Z" transform="translate(40 -77.99)"/></g></g><path class="cls-9" d="M573,591.19c-8,0-14.51-2.28-14.47-4.49l0,190.93c0,2.74,6.5,5,14.51,5s14.51-2.22,14.51-5V586.75c-.7,2.52-6.49,4.44-14.5,4.44" transform="translate(40 -77.99)"/><g class="cls-38"><g class="cls-39"><path class="cls-16" d="M731,583.5a10.86,10.86,0,0,0-4.33-4h0a19.85,19.85,0,0,0-2.61-1.1,77.83,77.83,0,0,0-15.8-3.5c-14.56-2.13-40.44-3.12-75.71,2.4a244.81,244.81,0,0,0-27.62,5.23l-.13,0-.69.15c-3.26.7-14,2.85-16.27,3.86l-.41.1.12,0c-.08.06-.13.11-.13.15a1.76,1.76,0,0,1-.16.49c-1.43,2.2-6.89,3.8-14.21,3.8-7.68,0-14-2.1-14.44-4.21,0,0,0-.05,0-.08h0a1.36,1.36,0,0,1,0-.2v.16a.44.44,0,0,0-.12-.11l.12,0-.41-.1c-2.27-1-13-3.16-16.26-3.86l-.69-.15-.13,0a244.56,244.56,0,0,0-27.63-5.23c-35.26-5.52-61.14-4.53-75.7-2.4a77.83,77.83,0,0,0-15.8,3.5,20.58,20.58,0,0,0-2.62,1.1h0a10.79,10.79,0,0,0-4.33,4c-1.51,2.44-1.59,4.83-1.59,7.59v3.17c0-2.76.08-5.15,1.59-7.59a10.79,10.79,0,0,1,4.33-4h0a19.26,19.26,0,0,1,2.62-1.11,78.5,78.5,0,0,1,15.8-3.5c14.56-2.13,40.44-3.12,75.7,2.41a244.53,244.53,0,0,1,27.63,5.22l.13,0,.69.15c3.26.7,14,2.85,16.26,3.86l.41.1a1.36,1.36,0,0,0,0,.2h0s0,0,0,.08c.48,2.11,6.76,4.21,14.44,4.21,7.32,0,12.78-1.6,14.21-3.8a1.76,1.76,0,0,0,.16-.49s.05-.09.13-.15l-.12,0,.41-.1c2.28-1,13-3.16,16.27-3.86l.69-.15.13,0a244.78,244.78,0,0,1,27.62-5.22c35.27-5.53,61.15-4.54,75.71-2.41a78.5,78.5,0,0,1,15.8,3.5,18.61,18.61,0,0,1,2.61,1.11h0a10.86,10.86,0,0,1,4.33,4c1.51,2.44,1.58,4.83,1.58,7.59v-3.17c0-2.76-.07-5.15-1.58-7.59" transform="translate(40 -77.99)"/></g></g><g class="cls-36"><g class="cls-40"><path class="cls-16" d="M558.56,586.7l0,190.93c0,2.31,4.62,4.25,10.87,4.8V591c-6.25-.55-10.86-2.47-10.83-4.33" transform="translate(40 -77.99)"/></g></g><path class="cls-9" d="M706.47,596c-14-2-39-3-72.92,2.32-6.46.85-17.71,3.15-23.55,4.38a4.74,4.74,0,0,0-3.76,4.64v38.56a4.75,4.75,0,0,0,5.76,4.63c13.8-3,28.63-7.21,45.72-8.25a238,238,0,0,1,51,1.65,4.74,4.74,0,0,0,5.38-4.69v-38a4.74,4.74,0,0,0-4-4.68c-1.23-.2-2.47-.38-3.72-.53" transform="translate(40 -77.99)"/><path class="cls-35" d="M440.35,673.72a5.46,5.46,0,0,0,.24-1.63c-.26-5-3.39-7.47-5-12.2-.72-2.11,2.83-6.61-1.69-7.75-4.68-1.17-13.74-.38-16.91-4.66-1.4-1.9-3.12-4.39-5.41-3.82a4.63,4.63,0,0,0-2,1.3c-19.16,18.53-.53,40.86,20.35,40.16a8.5,8.5,0,0,0,4.42-.92c2.35-1.35,3.36-3.76,4.46-6.13a23.23,23.23,0,0,0,1.55-4.35" transform="translate(40 -77.99)"/><path class="cls-7" d="M403.63,677.06c-4.74,2-10.57,0-13.82-4s-4.16-9.53-3.32-14.6,3.26-9.76,6.07-14.07c3.34-5.1,7.53-10,13.23-12.18a29.72,29.72,0,0,1,10-1.56c2.29,0,4.83.08,6.48,1.67a8.52,8.52,0,0,1,2,4.42c2.29,10.44.49,12-6.34,18.89-6.06,6.15-10.5,13.75-14.33,21.43" transform="translate(40 -77.99)"/></g></svg>