<svg xmlns="http://www.w3.org/2000/svg" xmlns:xlink="http://www.w3.org/1999/xlink" viewBox="0 0 1661.83 1104.77"><defs><style>.cls-1{fill:none;}.cls-2{opacity:0.3;}.cls-3{fill:#0c6;}.cls-4{fill:#8cabef;}.cls-5{fill:#efbfa5;}.cls-6{fill:#292949;}.cls-7{fill:#fff;}.cls-8{fill:#353a85;}.cls-9{fill:#5d66d3;}.cls-10{fill:#dfd8c7;}.cls-11{fill:#c1bbac;}.cls-12{fill:#cbc4b5;}.cls-13{fill:#f4f4f4;}.cls-14{opacity:0.05;}.cls-15{clip-path:url(#clip-path);}.cls-16{fill:#272525;}.cls-17{clip-path:url(#clip-path-2);}.cls-18{fill:#eed5d5;}.cls-19{fill:#dddae8;}.cls-20{fill:#007532;}.cls-21{fill:#babcbe;}.cls-22{fill:#26a358;}.cls-23{fill:#9eb79c;}.cls-24{fill:#b0c0ba;}.cls-25{fill:#3b3387;}.cls-26{opacity:0.13;}.cls-27{clip-path:url(#clip-path-3);}.cls-28{fill:#000100;}.cls-29{opacity:0.64;}.cls-30{clip-path:url(#clip-path-4);}.cls-31{opacity:0.11;}.cls-32{clip-path:url(#clip-path-5);}.cls-33{opacity:0.08;}.cls-34{clip-path:url(#clip-path-6);}.cls-35{fill:#b97262;}.cls-36{opacity:0.1;}.cls-37{clip-path:url(#clip-path-7);}.cls-38{opacity:0.2;}.cls-39{clip-path:url(#clip-path-8);}.cls-40{clip-path:url(#clip-path-9);}</style><clipPath id="clip-path"><rect class="cls-1" x="879.4" y="302.22" width="324.91" height="487.92"/></clipPath><clipPath id="clip-path-2"><rect class="cls-1" x="879.4" y="416.54" width="202.16" height="373.61"/></clipPath><clipPath id="clip-path-3"><rect class="cls-1" x="313.27" y="237.31" width="185.18" height="20.2" transform="translate(-7.74 13.18) rotate(-1.84)"/></clipPath><clipPath id="clip-path-4"><rect class="cls-1" x="401.24" y="132.24" width="24.59" height="25.09" transform="translate(-4.44 13.37) rotate(-1.84)"/></clipPath><clipPath id="clip-path-5"><rect class="cls-1" x="281.5" y="510.32" width="224.7" height="19.95" transform="translate(-16.52 12.93) rotate(-1.84)"/></clipPath><clipPath id="clip-path-6"><rect class="cls-1" x="1254.01" y="337.43" width="222.72" height="317.68"/></clipPath><clipPath id="clip-path-7"><rect class="cls-1" x="513.97" y="732.9" width="166.62" height="188.46"/></clipPath><clipPath id="clip-path-8"><rect class="cls-1" x="487.97" y="676.9" width="376.77" height="24.93"/></clipPath><clipPath id="clip-path-9"><rect class="cls-1" x="659.28" y="692.8" width="12.83" height="231.03"/></clipPath></defs><title>bookShop-02</title><g id="object"><g class="cls-2"><path class="cls-3" d="M716.06,1104.77c56.6-1.55,113.26-.42,169.92-.42,22.36,0,44.67.07,67,.42h469.9c2-1.12,4-2.27,5.9-3.47,19.89-12.2,55.35-50.1,61.45-79.22,17.1-81.65-241-79.68-280.62-79.5-44.32.21-89,2.08-133.3-.09-18.63-.91-37-5.59-55.17-10.71s-36.37-3.81-54.74-5.95c-76.59-8.94-153.36-7.63-230.21-7.63-25,0-50-.29-75-.19-44.9.17-89.81,1.56-134.63,8-16.9,2.41-33.45,7.72-50.39,9.86-33.84,4.27-67.07,12.25-101,15.93-27.35,3-54.81,4.71-82.07,8.47-25.56,3.53-53.86,2.71-79.23-3.11-18.78-4.31-37.64-6.74-56.11-13.66-20.65-7.75-43.09-13.29-64.61-13.09-30.68.29-60.57.32-89.93,14-1,.47-2.06,1-3.12,1.52v152.77c3.43,2.17,7,4.2,10.63,6.11Z"/></g><path class="cls-4" d="M731.48,320.69a181.79,181.79,0,0,0,65.3,24.1q6.18-28.34,13.07-56.51c2-8.09,4-16.32,8-23.71,2.1-3.93,10-11.1,7.56-16.2-4.31-8.93-23.09,1-28.45,3.93-14,7.74-26.78,18.51-37.78,30-2.66,2.78-30.16,36.87-27.72,38.35"/><path class="cls-5" d="M923.6,765.14l1.27,77.31c-.52,21.45,1.41,42.83,2.72,64.21,1.21,19.86-2.79,40.33,6.63,58.74,2.95,5.77,9.24,9.79,14,3.12,3.69-5.14,2-14,2.9-20C958,903.71,970.73,860,977.08,815.1c6.66-47-11.54-45.79-53.48-50"/><polygon class="cls-6" points="927.99 952.18 923.02 965.08 947.48 986.61 969.89 987.53 977.13 975.71 947 949.5 927.99 952.18"/><path class="cls-5" d="M868.83,765.89l-14.1,76c-4.89,34-16,67.13-20.89,101.14-1.12,7.82-.56,16.38-3.82,23.76-3.2,7.21-9.46,7.5-15,2.6-7.4-6.56-4-18.28-3.85-27.24.9-59.68-3.79-118.53-4.92-178.31a2.67,2.67,0,0,1,.62-2.18,2.58,2.58,0,0,1,1.84-.35c5.8.38,59.8,6.19,60.1,4.55"/><polygon class="cls-6" points="811.01 955.36 803.26 966.8 822.23 993.29 843.85 999.25 853.58 989.37 830.13 957.04 811.01 955.36"/><polygon class="cls-6" points="1003.28 814.33 992.73 703.8 987.65 631.98 970.54 573.33 878.2 559 764.02 578.57 758.54 600.75 780.51 806.08 890.63 814.33 889.14 686.54 906.13 765.75 905.4 814.33 1003.28 814.33"/><path class="cls-7" d="M788.26,357.37q-.22,5.6-.32,11.19c-1.34,75.81,2.84,152.6,3.32,229a848.43,848.43,0,0,1,118.36-10.1c9.17-.14,50.87,6.3,56.67.82,7.88-7.43-.78-6-.21-15.71.75-12.53-5.27-22.79-3-37.63,2.68-17.45,8-34.7,11-52.14a761.42,761.42,0,0,0,11-105.87c1.06-31.48-.08-64.12-13.62-92.56-33.38-70.13-141-68.87-170.53,4.35-8.75,21.69-11.78,45.17-12.76,68.61"/><path class="cls-4" d="M909.7,259l-29.23,53.26q2.29,80.73,4.58,161.44,1.07,37.2,2.12,74.4c.24,8.61.45,17.22.73,25.83.12,3.87-.94,10.37,1.26,13.53,4.79,6.84,22.28,4.71,29.91,5.31,11.9.94,24,1.91,35.18,6,7.46,2.73,14.54,6.85,22.41,8,1.77.24,3.74.28,5.13-.84,1.56-1.26,1.82-3.48,2-5.48,2.73-36.94,2.79-75,4.84-112.36,1.61-29.37,5.59-59,4.19-88.37-1.45-30.25-6.18-60.35-12-90-3.43-17.58-7.45-35.5-17.13-50.56-11-17.09-26.49-23.93-45.62-27.78-6.76-1.36-31.9-10.87-27.7,4.49,2.08,7.6,14.2,17.09,19.32,23.19"/><path class="cls-4" d="M846.11,264l29.23,53.26c-.61,0-3.71,130.58-4,139.4l-2.85,100.55c-.27,9.32,1,20.23-.84,29.39-2.54,12.78-16,10.27-27.47,11.3-25.09,2.26-51.5,6.54-76.66,5.27-7.25-.36,2.3-151.8,2.28-165.93,0-50.83-10.53-107.22,15.29-153.31,7.51-13.41,20.75-34.91,35.37-41.53,13.62-6.17,33.13-7.22,47.91-10.68l.77,9.58Z"/><path class="cls-6" d="M909.55,135a59,59,0,0,1,7.23,26.63c.11,2.46.28,5.31,2.27,6.77,2.14,1.56.26,5,1.88,2.89s7.14-9.33,7.39-12a97.43,97.43,0,0,0,0-18.55c-.52-5.36-1.61-11-5.12-15a30.1,30.1,0,0,0-7.59-5.78c-4-2.4-8.05-4.81-12.6-5.66-7.85-1.46-12.66,1.35-5.74,6.83A47.65,47.65,0,0,1,909.55,135"/><path class="cls-5" d="M860.53,240.2c.05,3.8-.73,7.74,2.62,10.68a11.59,11.59,0,0,0,5.9,2.32A36.73,36.73,0,0,0,885.49,252a14.77,14.77,0,0,0,6-3.16c1.94-1.86,2-3.63,2.13-6.08.11-2.86.69-5.77,1.06-8.67.82-6.35,1.19-12.75,1.38-19.14,9.4-1.61,20.45-4.65,23.67-14.5a32.26,32.26,0,0,0,1.07-9.78l.3-40.93c0-4.72,0-9.58-1.57-14-2.84-7.68-10-12.26-17.11-15.15-18-7.35-39-7.06-55.68,3.4-4.43,2.79-8.61,6.37-11.16,11.23-3.94,7.49-3.44,16.75-2.83,25.4q.84,12,1.69,23.95c.65,9.18,2,19.75,9.16,24.59,3.78,2.58,8.67,3.05,11.94,6.38,5.69,5.82,3,14.51,4.66,21.56a13.86,13.86,0,0,1,.33,3"/><path class="cls-6" d="M924.11,185.26c-.15-2.53-1.26-9.94-5.06-5.28a7.58,7.58,0,0,0-1.3,4.56,17.52,17.52,0,0,1-.5,4.82c-1.18,3.51-5.06,5.1-8.51,5a8.3,8.3,0,0,1-4-.94,12.49,12.49,0,0,1-3-2.79L895.06,183c-3.81-4.37-11.38-2.48-16.52-1.81-5.92.78-11.84,2.56-16.68,6.46-.49.39-1,.8-1.44,1.22a18,18,0,0,1-3.7,2.66c-4.57,2.23-10.23-.1-13.44-4.26-1.47-1.91-2.84-4.37-5.12-4.69-1.79-.25-3.52,1-4.44,2.7a13.57,13.57,0,0,0-1.29,5.6A41.2,41.2,0,0,0,836,211.48c6.62,13.55,19.43,15.21,32.3,14.91l15.27-.36c9.3-.22,19.13-.61,27-6,6.92-4.77,11-12.88,12.71-21.37a52.7,52.7,0,0,0,.86-13.39m-34,19.22c-4.9,3.29-10.3,3.47-15.76,1.82-2.32-.69-1.33-4.59,1-3.89,4.52,1.36,8.8,1.33,12.87-1.41,2.06-1.38,3.94,2.11,1.9,3.48"/><path class="cls-6" d="M926.05,111.33a73.33,73.33,0,0,0,2-10.08,20,20,0,0,1-9.87.85c0-2,0-3.92,0-5.89,0-1.63-22.09-2.77-23.89-2.92-16.79-1.37-32.14-2.68-47.33,6.33-13,7.7-21.28,19.19-23.27,34.16-1.91,14.29,2.77,33,11,44.83-.05-3.81-2.24-12.79-1.34-16.41a32.25,32.25,0,0,1,3.53-10.34,42.65,42.65,0,0,1,15-15.74c9.84-6.16,21.28-9.42,32.71-11,10.47-1.45,23.23-2.8,33.58,0,5,1.34,5.8,2.58,8.81-2.43.53-.89,4.74-11.22,4.32-11.23l-5.23-.08"/><path class="cls-8" d="M1253.3,364.67,878.27,402l-375-37.28A17.28,17.28,0,0,0,484.37,383l15.65,371a17.26,17.26,0,0,0,15.41,16.19c61.71,6.35,302.51,30.39,329.51,33.46a4.09,4.09,0,0,1,3.19,2.19c1.81,3.53,8.31,10.76,30.14,10.76s28.33-7.23,30.14-10.76a4.09,4.09,0,0,1,3.19-2.19c27-3.07,267.81-27.11,329.51-33.46a17.26,17.26,0,0,0,15.41-16.19l15.65-371a17.28,17.28,0,0,0-18.87-18.34"/><path class="cls-9" d="M1253.3,358.53l-375,37.28-375-37.28a17.28,17.28,0,0,0-18.87,18.34l15.65,371a17.26,17.26,0,0,0,15.41,16.19c61.71,6.35,302.51,30.39,329.51,33.46a4.09,4.09,0,0,1,3.19,2.19c1.81,3.53,8.31,10.76,30.14,10.76s28.33-7.23,30.14-10.76a4.09,4.09,0,0,1,3.19-2.19c27-3.07,267.81-27.11,329.51-33.46a17.26,17.26,0,0,0,15.41-16.19l15.65-371a17.28,17.28,0,0,0-18.87-18.34"/><path class="cls-10" d="M879.68,393.11c-172.77-115.55-347-63.24-347-63.24V731.18c240.81-48.85,345.55,52.35,345.55,52.35S983,682.33,1223.82,731.18V329.87s-171.36-52.31-344.14,63.24"/><path class="cls-11" d="M532.72,329.87S525,360.4,498.15,378.73l17.28,383.43s17.29-13.53,17.29-31Z"/><path class="cls-11" d="M1223.82,329.87s7.73,30.53,34.58,48.86l-17.29,383.43s-17.29-13.53-17.29-31Z"/><path class="cls-12" d="M515.43,762.16S755.63,707.19,863,804h15.25v-20.5s-108.4-102.95-345.55-52.35Z"/><path class="cls-12" d="M1241.11,762.16s-240.2-55-347.59,41.87H878.27v-20.5s108.4-102.95,345.55-52.35Z"/><path class="cls-13" d="M699.28,305.31c-20.82-2.06-41.47-2.89-61.14-3.09-9.07-.09-83.65,2.76-83.65,5.3V711.34c0-2.55,74.75-5.39,83.84-5.29,64.2.68,136.35,12.43,193.12,43.77,9.48,5.24,47.95,25.84,47.95,40.33v-393a31.65,31.65,0,0,0-8.47-21.63c-43.11-46.13-108.12-63.88-171.65-70.17"/><path class="cls-7" d="M1059.52,305.31c20.82-2.06,41.48-2.89,61.15-3.09,9.07-.09,83.64,2.76,83.64,5.3V711.34c0-2.55-74.75-5.39-83.84-5.29-64.2.68-136.35,12.43-193.12,43.77-9.48,5.24-48,25.84-48,40.33v-393a31.66,31.66,0,0,1,8.48-21.63C931,329.35,996,311.6,1059.52,305.31"/><g class="cls-14"><g class="cls-15"><path class="cls-16" d="M1059.52,305.31c20.82-2.06,41.48-2.89,61.15-3.09,9.07-.09,83.64,2.76,83.64,5.3V711.34c0-2.55-74.75-5.39-83.84-5.29-64.2.68-136.35,12.43-193.12,43.77-9.48,5.24-48,25.84-48,40.33v-393a31.66,31.66,0,0,1,8.48-21.63C931,329.35,996,311.6,1059.52,305.31"/></g></g><g class="cls-14"><g class="cls-17"><path class="cls-16" d="M879.4,416.54V790.15c0-14.49,38.47-35.09,48-40.33,45.53-25.13,100.93-37.65,154.2-42h0C917.36,636.51,885.1,462,879.4,416.54"/></g></g><path class="cls-5" d="M993.75,346.84a6.2,6.2,0,0,1-1.29-1c-3.18-3.6-2.4-7-4.34-11.15-.87-1.85-6.66-3-3.92-6.26,1-1.2,4-3.81,6.16-6.34,4-4.61.27-11.3,4.41-16.47,3.56-4.45,16.39-8.55,20.89-2,1.68,2.45-.66,6.41-.3,9.07.55,4.09,3.85,6.81,5.34,10.61a30.21,30.21,0,0,1,1.87,11.53c-.4,6.88-7.36,10.52-13,14.23a8.77,8.77,0,0,1-4,1.77c-2.72.35-5.14-.77-7.59-1.8a28,28,0,0,1-4.14-2.16"/><path class="cls-4" d="M1030.47,327.22c5.35-2.59,8.07-9.18,7.11-15s-5.07-10.89-10.11-14.05-10.94-4.64-16.83-5.5c-7-1-14.43-1.15-20.67,2.13a34.42,34.42,0,0,0-9,7.48c-1.8,1.95-3.63,4.25-3.51,6.9a9.8,9.8,0,0,0,2.29,5.13c7.28,10,10,9.57,21.21,9,10-.55,19.95,1.43,29.53,4"/><path class="cls-5" d="M747.51,336.86a6,6,0,0,0,1.43-.78c3.73-3,3.53-6.51,6.12-10.28,1.16-1.68,7.07-1.89,4.9-5.54-.8-1.34-3.31-4.41-5.05-7.26-3.16-5.2,1.6-11.19-1.64-17-2.78-5-14.76-11.13-20.27-5.42-2.07,2.14-.41,6.42-1.2,9-1.21,3.94-4.91,6.09-7,9.59a30.09,30.09,0,0,0-3.74,11.07c-.74,6.85,5.53,11.58,10.53,16.18a8.78,8.78,0,0,0,3.7,2.41c2.63.79,5.2.08,7.78-.54a26.5,26.5,0,0,0,4.44-1.45"/><path class="cls-4" d="M714.51,311.49c-4.86-3.44-6.46-10.38-4.55-16s6.79-9.91,12.28-12.2,11.56-2.78,17.5-2.67c7,.14,14.43,1.25,20,5.5a34.69,34.69,0,0,1,7.67,8.86c1.45,2.22,2.88,4.79,2.33,7.38a9.84,9.84,0,0,1-3.1,4.69c-8.82,8.63-11.41,7.8-22.4,5.35-9.74-2.17-19.91-1.86-29.78-.9"/><polygon class="cls-18" points="508.73 612.71 509.92 612.77 511.83 576.52 510.64 576.46 508.73 612.71"/><path class="cls-5" d="M498.15,245.9l42,9.29-1.08-6c-3.25-18.08,0-39.86,7.16-57.24l-1.79-1.09L504.93,171Z"/><path class="cls-8" d="M541.71,253.32c-7.05-1.14-13.87-3.94-20.65-6.16l-19-6.23c-1-.32-1.59,1.63-.59,2L522,249.62c6.43,2.11,12.85,4.67,19.55,5.75,1.05.17,1.21-1.88.16-2.05"/><path class="cls-8" d="M505.13,173.77A277.8,277.8,0,0,1,547,194c1.4.82,2.9-1.83,1.48-2.66A282.13,282.13,0,0,0,506,170.79c-1.49-.57-2.38,2.41-.88,3"/><path class="cls-5" d="M508.5,466.21l41.4-3.93-1.74,4.62c-5.22,13.87-4.66,31.08.06,45.07l-1.83.72-40,12.62Z"/><path class="cls-8" d="M551.14,463.87c-6.85.33-13.69,2-20.44,3.17l-19,3.39c-1,.18-1.35-1.4-.34-1.59l20.55-3.65c6.41-1.14,12.84-2.63,19.35-2.94,1-.05.92,1.57-.09,1.62"/><path class="cls-8" d="M506.92,523.19a316.87,316.87,0,0,0,42.21-12.75c1.42-.54,2.53,1.62,1.09,2.16a321.91,321.91,0,0,1-42.79,13,1.22,1.22,0,0,1-.51-2.38"/><path class="cls-19" d="M523,349a40.73,40.73,0,0,1,8.87-7.55c1.31-.83,2.39,1.34,1.09,2.16a38.84,38.84,0,0,0-7.59,6.36,74.34,74.34,0,0,0,7,8c1.11,1.08-.67,2.7-1.77,1.63a74.2,74.2,0,0,1-7.74-8.86A1.29,1.29,0,0,1,523,349"/><path class="cls-19" d="M509.18,347.77c1.76-2.43,4.9-4.43,7.14-6.39a1.21,1.21,0,0,1,1.59,1.81c-1.89,1.65-4.58,3.34-6.27,5.33a35.15,35.15,0,0,0,3.23,3.23l3.64,3.79c1.08,1.12-.7,2.74-1.77,1.63l-4.37-4.54c-1.07-1.12-2.56-2.22-3.25-3.64a1.24,1.24,0,0,1,.06-1.22"/><path class="cls-19" d="M502.24,338c1.15-1,2.74.76,1.59,1.8-.69.63-2.1,2.84-.5,3.24s.72,2.68-.76,2.31a3.23,3.23,0,0,1-2.32-3.31,5.69,5.69,0,0,1,2-4"/><rect class="cls-19" x="520.77" y="387.19" width="16.48" height="4.31" transform="translate(113.04 897.69) rotate(-87.06)"/><rect class="cls-19" x="507.25" y="386.49" width="16.48" height="4.31" transform="translate(100.92 883.53) rotate(-87.06)"/><path class="cls-5" d="M493.61,455.4c-3.93-2.17-9.9-2.63-14.71-5-2.42-1.21-2.5-6.67-7.45-4-1.82,1-4.88,3.79-8.38,5.63-5.1,2.68-12.73,3.42-19.34,2.79-26-2.51-52-4.54-78.19-4a8.58,8.58,0,0,1-4.32-.62c-2.41-1.3-3-3.82-3.88-6.25-4-11.29-8.37-22.31-14.49-32.68-5.47-9.26-11.66-18-20.74-23.87s-20.39-8.07-30.15-3.61c-7.3,3.34-13,9.4-13.59,17.51-1.55,20.11,18.26,32.62,30.74,45.09,11.8,11.79,21.88,21.78,34,32.43a13.61,13.61,0,0,0,4.88,3.16,14.18,14.18,0,0,0,6.12.14c25.89-3.47,51-7.51,77.07-5.31,7.15.61,13.34-1.63,20.18-.2,4.36.92,7.05,4.82,11.15,6.34s8.89,3,13.24,2.77c9.59-.51,19.45-9.79,21.55-19.31,1.37-6.21-.48-9.18-3.72-11"/><path class="cls-20" d="M308.54,439.15c13.94-7.29,28.85-12.51,42.28-20.92-6.66-11.77-27.67-60.41-31-66.14-12.59-21.87-15.68-31.57-30.67-42.11-32-22.51-64.22-1.15-58.37,35.57,6.35,39.86,31.95,71.65,58.92,99.82a4.57,4.57,0,0,0,2.26,1.28,5.19,5.19,0,0,0,3.24-.82c4.33-2.34,8.91-4.38,13.31-6.68"/><path class="cls-5" d="M335.63,995.24c5.16,0,10.06-1.31,15.1-1.94,1-50.18-5.43-102.53-9.1-152.8l-38.54,3.3A449.49,449.49,0,0,1,324.85,926c.74,4.43,10,69.29,10.78,69.29"/><path class="cls-6" d="M352,983.54c3.15-.67,5.07.68,7.25,2.55,1.27,1.08,2.16,2.65,3.67,3.4a11.61,11.61,0,0,0,4.73,1c9.32.64,30.7-.44,19.8,15.45-9.89,14.44-37.56,9.71-53.56,6.39a5.5,5.5,0,0,1-2.95-1.12,7.61,7.61,0,0,1-1.71-3.1c-2-6.58-4.76-14.79,3.3-17.83,3.45-1.3,6.73.9,10.37-.49,3-1.15,5.94-5.58,9.1-6.24"/><path class="cls-6" d="M371.46,869.79l-78.79,1Q256,720.22,226.81,567.92c-1.51-7.87-3-16-1-23.8,3.84-14.66,19.13-23.44,33.92-26.7,23-5.07,65.7-.42,78.33,23.25,13.36,25,12.72,70.49,16.66,98.48a1709.67,1709.67,0,0,1,16.7,230.64"/><path class="cls-5" d="M185.54,1000.07c-5.14.34-10.12-.66-15.19-1-4.22-50-1.17-102.67-.74-153.08l38.68.82a450,450,0,0,0-16.44,83.38c-.45,4.47-5.57,69.79-6.31,69.84"/><path class="cls-6" d="M168.48,989.44c-3.19-.47-5,1-7.08,3-1.19,1.16-2,2.78-3.43,3.63a11.51,11.51,0,0,1-4.67,1.29c-9.25,1.24-30.65,1.54-18.76,16.7,10.8,13.77,38.11,7.27,53.86,2.93a5.54,5.54,0,0,0,2.87-1.31,7.53,7.53,0,0,0,1.51-3.21c1.59-6.69,3.8-15.05-4.44-17.57-3.52-1.08-6.65,1.33-10.38.17-3.05-1-6.28-5.18-9.48-5.64"/><path class="cls-6" d="M141.73,877.18l78.69-4.06q27-152.62,46.26-306.48c1-7.95,1.95-16.21-.57-23.82-4.78-14.38-20.59-22.16-35.57-24.46-23.27-3.58-65.58,3.8-76.67,28.24-11.73,25.82-8.16,71.15-10.3,99.34a1709.28,1709.28,0,0,0-1.84,231.24"/><path class="cls-3" d="M191.2,320.8c-20.4,20.71-35.33,46.94-44,73.89-15.29,47.73-14,98.12-12.56,147.5q.72,24.64,1.43,49.3c.47,16.17,2,19.6,19.51,16.9,32.44-5,66.07-12.79,95.1-28.21,13.82-7.34,26.66-16.46,41.2-22.35,21.16-8.57,43.22-5.71,64.24-11.52-10.09-27.5-17.43-51-23.07-79.46-5.81-29.33-11.26-61.35-19.32-90.22-4.83-17.32-13.31-33.37-21.91-49.17-5.78-10.61-11.89-21.47-21.36-29-28.55-22.6-59,1.69-79.29,22.31"/><path class="cls-5" d="M264.9,249.14c-3.7,8.81-10,16.26-15,24.37-4.91,7.9-6.54,14.95-7.62,24-.78,6.51-2.93,11.64-10.69,13-14.64,2.56-10.82-9.73-14.45-18.46-4.14-10-12.54-17.7-18.52-26.54-17.28-25.53-14.24-77.18,19.58-89.27,37-13.22,57.92,46.19,46.71,72.94"/><path class="cls-6" d="M204.52,225.84c-4.24.3-8.89.79-12,3.74s-2.51,9.15,1.66,9.69c3.79.49,8.54-3.6,10.93-.8,1.4,1.63.3,4.12-.66,6.11A35.83,35.83,0,0,0,202,268.94c-1.5,1.49-4,.08-5.38-1.37a78.43,78.43,0,0,1-16.31-24.94,15.64,15.64,0,0,1-5.51,5.69c1.29-3.56.28-7.38-.71-10.94-3.61-13.08-6.28-28.45,2.57-39.52,4.75-5.92,12.13-9.48,19.62-11.11s15.17-1.55,22.77-1.45c3.26,0,7.28.61,8.16,3.59-7,3.09-14.23,8.89-17.57,15.75-1,2.11-4.71,21.16-5.14,21.2"/><path class="cls-6" d="M218.55,193.68l-.74.59c-3.15,2.56-6.08,5.65-10,6.87-5.58,1.75-11.72-.77-17.2,1.32-6.13,2.35-10,9.89-14.35,14.42a65.65,65.65,0,0,1-26,16.34,66.38,66.38,0,0,1-15.45,3.28c-2.38.21-5.56.76-7.9.21-3.15-.74-3.09-2.16.2-3.33,10.33-3.68,13.13-18.44,12-28.13-.87-7.65-3.78-15.57-1.08-22.78,2.06-5.51,6.77-8.47,11.3-11.73,5-3.59,10.58-2.85,16.33-4.68,6-1.92,10.79-6.85,16.93-8.26,6.48-1.5,13.1,1.18,19.67,2.24a40.46,40.46,0,0,0,16.36-.72c4.78-1.22,9.41-3.31,14.33-3.43,7.27-.16,14.09,4.15,18.52,9.91,6.26,8.15,10.59,22.3,8.83,33.35.28-1.71-5.66-7.7-6.88-9-2.58-2.73-5.67-5.26-9.49-5.59-8.64-.75-18.7,3.86-25.46,9.11"/><path class="cls-21" d="M515.48,522.26s-6.8,38.43-.88,55.53l-14.6.58,2.74-61.51Z"/><path class="cls-21" d="M500.48,571.67q6.16.78,12.37,1c.67,0,.58,1.11-.09,1.09q-6.21-.24-12.37-1c-.66-.08-.57-1.17.09-1.09"/><path class="cls-21" d="M501,565.88,512,567c.66.07.58,1.16-.09,1.09L500.86,567c-.66-.07-.57-1.16.09-1.09"/><path class="cls-21" d="M501.35,560.89c2.74.72,4.42,1.15,10.56.89.67,0,.58,1.08-.09,1.09a50.62,50.62,0,0,1-10.56-.89c-.64-.12-.56-1.21.09-1.09"/><path class="cls-21" d="M500.86,553.89a83.67,83.67,0,0,0,10.78,1.5c.67,0,.58,1.13-.08,1.08A81.85,81.85,0,0,1,500.77,555c-.64-.14-.56-1.23.09-1.09"/><path class="cls-21" d="M501.64,547.64q5.26.61,10.55.92c.67,0,.58,1.13-.08,1.09q-5.3-.3-10.56-.92c-.66-.08-.57-1.17.09-1.09"/><path class="cls-21" d="M502.41,541.41c3.41.53,6.83.92,10.26,1.19a.55.55,0,0,1-.08,1.09c-3.44-.27-6.86-.66-10.27-1.19-.65-.1-.57-1.19.09-1.09"/><path class="cls-21" d="M502.72,534.32q5.47,1,11,1.52a.45.45,0,0,1,.26.12.53.53,0,0,0,0,.13c-.07.26-.12.54-.17.81a.43.43,0,0,1-.17,0q-5.53-.52-11-1.52c-.65-.12-.56-1.21.09-1.09"/><path class="cls-21" d="M502.77,527.26l10.78,1.22c.66.07.58,1.16-.09,1.08l-10.78-1.21c-.66-.07-.58-1.16.09-1.09"/><path class="cls-22" d="M261.66,644.55,523.33,658a.61.61,0,0,0,.64-.59l2.3-43.7a.62.62,0,0,0-.58-.65L264,599.61a.62.62,0,0,0-.64.59l-2.29,43.7a.61.61,0,0,0,.57.65"/><polygon class="cls-6" points="477.24 655.66 504.75 657.08 507.11 612.13 479.6 610.71 477.24 655.66"/><polygon class="cls-6" points="464.78 655.02 470.9 655.33 473.26 610.38 467.14 610.07 464.78 655.02"/><path class="cls-6" d="M442.72,631.35a7.81,7.81,0,1,0,8.22-7.56,7.89,7.89,0,0,0-8.22,7.56"/><path class="cls-9" d="M261.84,600l261.68,13.48a.61.61,0,0,0,.63-.59l1.84-35a.61.61,0,0,0-.57-.65L263.74,563.74a.61.61,0,0,0-.63.59l-1.84,35a.61.61,0,0,0,.57.65"/><polygon class="cls-18" points="492.06 585.8 491.23 601.51 483.33 594.09 492.06 585.8"/><polygon class="cls-18" points="481.46 586.77 480.79 599.46 474.41 593.46 481.46 586.77"/><polygon class="cls-18" points="503.15 612.42 504.34 612.48 506.24 576.23 505.05 576.17 503.15 612.42"/><path class="cls-18" d="M444,175.89l18.8,6.29-.39-4.46c-1.19-13.42.63-29.7,4.11-42.75l-.79-.79L448.25,120Z"/><polygon class="cls-23" points="337.6 172.11 445.56 173.4 463.29 181.97 346.38 180.83 337.6 172.11"/><path class="cls-24" d="M463.56,180.76c-3.16-.74-6.19-2.72-9.21-4.27l-8.49-4.35c-.45-.23-.74,1.23-.29,1.46l9.16,4.71c2.87,1.47,5.73,3.28,8.73,4,.47.11.57-1.42.1-1.53"/><path class="cls-24" d="M448.3,122.05a107,107,0,0,1,18.55,14.42c.62.6,1.34-1.4.71-2a108.74,108.74,0,0,0-18.81-14.65c-.67-.4-1.11,1.83-.45,2.23"/><path class="cls-4" d="M340.39,119.29l108.75.73-1.3,12c-1,9.72-1.72,19.47-2,29.15l-.28,12.22-108-1.29-.06-.72a191.12,191.12,0,0,1,2.85-52.1"/><path class="cls-9" d="M432.75,121.13c.26-1.53,2.64-1.33,2.37.21a181.76,181.76,0,0,0-1.94,48.74c.15,1.55-2.19,2-2.34.44a183.72,183.72,0,0,1,1.91-49.39"/><path class="cls-9" d="M353.4,121.19c.28-1.53,2.66-1.31,2.38.23a181.27,181.27,0,0,0-2.36,48.72c.13,1.55-2.21,2-2.35.42a184.43,184.43,0,0,1,2.33-49.37"/><polygon class="cls-6" points="261.71 236 501.41 242.62 541.17 254.93 281.61 248.11 261.71 236"/><path class="cls-25" d="M265.46,165.18l241.44,5.9-2.34,16.08a300.5,300.5,0,0,0-3.09,39.05l-.06,16.41L261.71,236l-.17-1A156,156,0,0,1,265.46,165.18Z"/><path class="cls-19" d="M282.09,564.3l221.44,11.4,2.79-53.17L284.88,511.12l-.25.72a91.88,91.88,0,0,0-2.54,52.46"/><rect class="cls-8" x="440.18" y="531.66" width="53.25" height="30.98" transform="translate(-103.64 985.19) rotate(-87.05)"/><polygon class="cls-6" points="268.58 454.59 511.27 469.05 550.82 462.56 290.74 446.34 268.58 454.59"/><path class="cls-22" d="M265.52,512.9l242.79,12.5-.39-12.67A191.82,191.82,0,0,1,509.44,482l1.83-12.91L268.58,454.59l-.27.79a100.69,100.69,0,0,0-2.79,57.52"/><path class="cls-22" d="M292.24,452.09l230.09,11.85a.61.61,0,0,0,.64-.58l2.83-53.87a.62.62,0,0,0-.58-.65L295.13,397a.61.61,0,0,0-.64.59l-2.83,53.86a.62.62,0,0,0,.58.65"/><path class="cls-22" d="M265.37,356.31,549.83,371a.61.61,0,0,0,.64-.58l2-39a.61.61,0,0,0-.57-.65L267.49,316.08a.61.61,0,0,0-.64.59l-2.05,39a.61.61,0,0,0,.57.65"/><path class="cls-22" d="M313.1,319.18l181.32,9.34,4.18-79.46-181.33-9.34-.89,4.39a240.43,240.43,0,0,0-3.71,70.61Z"/><polygon class="cls-18" points="438.37 325.11 474.35 326.96 478.47 248.55 442.49 246.7 438.37 325.11"/><rect class="cls-22" x="419.33" y="276.72" width="78.52" height="20.23" transform="translate(148.54 730.06) rotate(-87.05)"/><g class="cls-26"><g class="cls-27"><polygon class="cls-28" points="498.57 249.5 317.25 240.16 313.65 260.49 498.35 253.8 498.57 249.5"/></g></g><g class="cls-29"><g class="cls-30"><path class="cls-9" d="M401.26,144.15a12.29,12.29,0,1,0,12.93-11.89,12.41,12.41,0,0,0-12.93,11.89"/></g></g><path class="cls-19" d="M488.65,343.52a1.2,1.2,0,0,1,1.33-.43,4.7,4.7,0,0,1,5.35,7.6,4.53,4.53,0,0,1-6.3,0,5.38,5.38,0,0,1-.38-7.18m1.9,5.31a2.16,2.16,0,0,0,3.18.05,2.3,2.3,0,0,0-2.77-3.59,1.17,1.17,0,0,1-.67.11,2.81,2.81,0,0,0,.26,3.43"/><rect class="cls-19" x="297.93" y="424.81" width="55.4" height="2.75" transform="translate(-116.79 729.39) rotate(-87.04)"/><rect class="cls-19" x="286.83" y="424.24" width="55.4" height="2.75" transform="translate(-126.77 717.73) rotate(-87.04)"/><g class="cls-31"><g class="cls-32"><path class="cls-28" d="M506.42,525.31,284,513.85s-1.72,5.35-2.43,8.95l224.58,3.86Z"/></g></g><path class="cls-6" d="M278,396.59l284.46,14.65a.61.61,0,0,0,.64-.59l2-39a.62.62,0,0,0-.58-.65L280.14,356.36a.6.6,0,0,0-.63.58l-2.05,39a.61.61,0,0,0,.57.65"/><path class="cls-18" d="M264.34,355.52,549.6,370.61a1.33,1.33,0,0,0,1.37-1.56L265.25,351.68Z"/><path class="cls-19" d="M265.47,353.84l285.26,15.09a1.33,1.33,0,0,0,1.37-1.55L266.39,350Z"/><path class="cls-21" d="M511.22,256.14s-11.15,49.95-2.16,71.3l-14.64,1.08,4.15-79Z"/><path class="cls-5" d="M301.55,520.4a5.36,5.36,0,0,0-.7-1.37c-2.87-3.66-6.55-3.85-10.31-6.57-1.67-1.22-1.38-6.53-5.41-5-1.48.57-4.93,2.49-8.09,3.74-4.6,1.83-11.54,1.36-17,0a158,158,0,0,1-21.9-6.94c-7.22-3.05-14.27-6.49-21.17-10.2-5.75-3.1-14.83-6.57-19.25-11.42-7.49-8.2.21-29,.82-39.58.63-11-1.37-43.31-16.21-43.75-24.32-.72-24,22.36-24.45,41a238.77,238.77,0,0,0,1.54,35c2,16.16,12.78,25.1,26.9,32.32,15,7.66,30.27,15.14,46.59,19.46,7.93,2.1,15.68,2.55,23.74,3.59s7.06,4.51,13.8,7.2c3.77,1.5,7.32,3.74,11.31,4.51,7.15,1.39,12.68-3.71,18-7.7a7.71,7.71,0,0,0,2.86-3.05c1.06-2.27.54-4.65.11-7a21.69,21.69,0,0,0-1.14-4.12"/><path class="cls-20" d="M158.54,446.52,200,453.18c-.89-.14,13.9-62,14.65-65.76,2.88-14.18,5.76-28.89,2.45-43-7.06-30.08-21.89-37.06-39.25-4.66-16.39,30.58-42.43,67.39-35.95,101.39a3.32,3.32,0,0,0,3.59,3.24Z"/><path class="cls-5" d="M1482.58,400.91a6.3,6.3,0,0,0-1.69-.55c-5.36-.68-8.56,2.18-13.88,3-2.37.36-6.47-4.26-8.52.32-.76,1.68-2,6.08-3.62,9.7-2.31,5.26-8.42,10.55-14,13.85-22.1,13-47.11,19.55-72.06,25.29a9.34,9.34,0,0,1-4.32.28c-2.54-.66-4-3.22-5.23-5.52a195,195,0,0,0-20-30.31c-6.76-8.44-14.46-16.49-24.2-21.19s-21.9-5.52-31.08.19a25.65,25.65,0,0,0-11.87,20.12c-1,20.06,25.38,32.81,39.19,43.08a348.72,348.72,0,0,0,41.12,26.3,15,15,0,0,0,5.6,2.12,15.28,15.28,0,0,0,6.26-1.18c26.11-8.92,51.29-20.1,76.37-31.84,6.89-3.23,11.21-9.67,17.61-12.59,4.08-1.87,8.63-.4,12.88-1.31a41.64,41.64,0,0,0,13-5.53c7-4.7,7.43-13.43,8.52-21a9.12,9.12,0,0,0-.14-4.85c-1-2.74-3.35-4.28-5.65-5.89a26,26,0,0,0-4.31-2.47"/><path class="cls-19" d="M1309.18,451.67l39.6-28.36c-.84.61-39.24-62.52-41.65-66.2-9.21-14.05-18.87-28.53-33.11-37.44-30.4-19-68.79,8.44-57.11,43.66,12.68,38.23,41,74.83,74.15,97.56a5,5,0,0,0,2.36,1.07,5.17,5.17,0,0,0,3.26-1.33l12.5-9"/><polygon class="cls-5" points="1278.88 942.64 1278.3 983.4 1302.45 983.72 1303.09 938.53 1278.88 942.64"/><path class="cls-6" d="M1300.3,977.34l-21,6.94L1273,991l1.06,16,56.78,4.42a12.64,12.64,0,0,0-6.32-19.21l-2.65-.91Z"/><polygon class="cls-5" points="1104.82 903.57 1088.83 941.06 1111.05 950.52 1128.79 908.96 1104.82 903.57"/><path class="cls-6" d="M1110.64,951.22a18.64,18.64,0,0,0-2.81-2.5c-2.67-2-24.2-13.36-26-8.22a5.87,5.87,0,0,0-.1,2.64,196.28,196.28,0,0,0,10.33,43.4c2.17,6,5.47,12.63,11.67,14.12,2.71.66,5.57.17,8.29-.44a88.61,88.61,0,0,0,11.83-3.59,6.57,6.57,0,0,0,3.63-2.53c1.46-2.63-1.09-5.76-3.75-7.18s-5.91-2.45-7.21-5.17a10.4,10.4,0,0,1-.74-4c-.54-10,1.16-19.66-5.09-26.57"/><path class="cls-21" d="M1256.56,753.76C1248.64,790,1226,816,1201.79,842.67a1149.08,1149.08,0,0,0-78,95.76l-31.45-13.11c8.77-50.92,32.92-97.64,51.64-145.79,13-33.47,23.54-68.85,24.11-105,.28-18-4.07-34.43-6.41-51.92-2.89-21.67-3-43.88-5.66-65.65-.88-7.3-1.38-15.93,4.24-20.68,2.49-2.12,5.79-3,9-3.63,119.2-23.08,102.36,152.24,87.29,221.13"/><path class="cls-21" d="M1159.46,563.76c-.07-22,2.62-43.18,6.73-59.33,33.91-1.82,72.23,1.93,105.76,8.74,32.78,6.65,53.22,13.78,53.46,49.32.43,65.4,26,121.11,37,184,6.42,36.53-4.67,69.2-17,103a1147.84,1147.84,0,0,0-35.83,118.18l-34.07-.2c-11.21-50.43-6.59-102.82-7.54-154.48-.66-35.9-4.33-72.63-17.53-106.31-14.5-37-35.38-22.29-59.35-43.76-23.3-20.87-31.6-61.21-31.71-99.18"/><path class="cls-22" d="M1198,312.07a91.27,91.27,0,0,0-10.29,9.87l-8.73,9.32c-10.1,10.76-15.08,26.69-19.41,40.44-22.76,72.36-31,171.63-16.17,247.24,56.07,4.84,121-9.3,176.89-16.94,5.44-.74,11.6-2,14.43-6.67,1.71-2.85,1.76-6.37,1.75-9.69,0-48-10.14-99.58-19.66-146.9a516.57,516.57,0,0,0-15.3-59.12c-6.71-20.5-14.29-42.63-30-58.13-16.81-16.59-49-24.78-70-11.83a39.56,39.56,0,0,0-3.46,2.41"/><path class="cls-5" d="M1204.07,322.15l-3-19.58a36.33,36.33,0,0,1-3.86-2.13c-23.38-14.93-62.6-95.09-.28-113,56.6-16.3,53.65,61.55,42.61,94a48.24,48.24,0,0,1-8.16,15.36c-2.56,3.11-3.13,2.52-2.76,6.13s3.83,7.44,4.62,11.12c.84,3.93.53,8.28-1.75,11.59a15.49,15.49,0,0,1-5.62,4.68,17.54,17.54,0,0,1-11.31,2.12c-4.57-.87-9.73-5.59-10.46-10.27"/><path class="cls-6" d="M1252.8,252c-4.73,16-8.74,22.13-14.38,29.32-11.83,15.08-2-38.36-6.88-56.89-.37-1.42-.74-3,0-4.26s2.17-1.6,3.51-1.89c23.83-5.15,23.76,15.66,17.72,33.72"/><path class="cls-6" d="M1190.19,280.89c-3.83,5.38-12.2,3.93-18.1,1-24.22-12.17-38.48-41.49-33.11-68.06,4.5-22.23,32.53-38.91,38.19-11.36,2,9.77-3.93,23.3-2.57,34.14,1.94,15.49,9.16,30.29,15.59,44.32"/><path class="cls-6" d="M1252.55,167c2.71,1.08,5.47,2.21,8.38,3.35,6,2.35,10.39,3.15,16.6-.38,1.78-1,13.68-12.26,10.81-14.6,19,15.49,3.37,38.09-3.75,54.1-4.79,10.78-5.78,26-16.57,33.06-11.86,7.75-20-2-30.77-6.45-9.5-3.87-19.77-6-29.44-9.42-16-5.72-39.92-15.78-34.6-37.09,6.2-24.89,31.42-31.1,54.08-29.19,9.68.81,17.26,3.46,25.26,6.62"/><path class="cls-8" d="M1506.17,645.77l-58.68-88.33V257.38a5.32,5.32,0,0,1,9.74-2.95l48.94,73.67Z"/><polygon class="cls-7" points="1503.56 331.02 1453.17 256.25 1432.37 260.56 1492.75 336.18 1492.75 648.44 1503.56 645.77 1503.56 331.02"/><polygon class="cls-7" points="1265.8 308.48 1301.75 295.42 1492.75 336.18 1492.75 638.37 1265.8 597.5 1265.8 308.48"/><path class="cls-8" d="M1476.73,655.11,1254,624.3a10.6,10.6,0,0,1-8.55-10.41v-296a10.61,10.61,0,0,1,12.67-10.41l218.6,30Z"/><path class="cls-9" d="M1506.17,328.1c-.55,2.22-6.13,5.65-13.42,8.08-7.88,2.63-14.86,3.15-15.93,1.22l-.09,0V654.29a1.31,1.31,0,0,0,0,.68v.14h0c.89,2,8,1.55,16-1.12s14.06-6.61,13.42-8.77Z"/><polygon class="cls-10" points="1432.37 260.57 1432.37 323.29 1492.75 336.18 1432.37 260.57"/><polygon class="cls-12" points="1492.75 336.18 1318.91 290.96 1318.91 299.08 1492.75 336.18"/><polygon class="cls-4" points="1271.81 564.06 1455.33 589.45 1455.33 630.54 1271.81 605.16 1271.81 564.06"/><g class="cls-33"><g class="cls-34"><path class="cls-16" d="M1254,624.3l222.72,30.81V337.43S1447.49,578.56,1254,624.3"/></g></g><path class="cls-5" d="M1384.77,532.64a6.21,6.21,0,0,0-1.33-1.19c-4.65-2.76-8.72-1.41-13.92-2.78-2.32-.62-4.24-6.48-8-3.11-1.36,1.24-4.29,4.77-7.18,7.45-4.22,3.91-11.93,6.32-18.4,7.1-25.44,3.07-51-.87-76.17-5.56a9.2,9.2,0,0,1-4.08-1.47c-2.06-1.61-2.38-4.54-2.58-7.14a197.1,197.1,0,0,0-6.23-35.77c-2.84-10.43-6.69-20.89-13.75-29.08s-17.87-13.8-28.57-12.23a25.66,25.66,0,0,0-18.91,13.72c-9,18,10.18,40.2,18.75,55.13a349.28,349.28,0,0,0,27.21,40.53,14.94,14.94,0,0,0,4.29,4.17,15.27,15.27,0,0,0,6.22,1.42c27.5,2.23,55,2,82.72,1.27,7.61-.21,14.14-4.39,21.18-4.52,4.49-.08,8.07,3.08,12.32,3.94a41.68,41.68,0,0,0,14.18.13c8.32-1.5,12.16-9.35,16.19-15.87a9,9,0,0,0,1.81-4.51c.19-2.9-1.37-5.26-2.83-7.65a25.28,25.28,0,0,0-3-4"/><path class="cls-3" d="M1205.51,510l47.63-10.21c-1,.22-11-73-11.78-77.32-2.84-16.56-5.92-33.69-15.42-47.54-20.28-29.58-66.45-19.71-69.79,17.25-3.62,40.11,7.76,85,29.07,119.05a3.87,3.87,0,0,0,5.25,2l15-3.23"/><path class="cls-6" d="M777.23,931.92c-2-17.15-10.58-30.76-26.45-38.21-12.88-6-27.35-7.46-41.46-9.27-31.42-4-61.42-8.07-93.14-6.82-25.37,1-41,22.64-52.88,44-7.49,13.46-5.41,19.77,4,31a114.07,114.07,0,0,0,31,25.93c23.31,13.24,59.13,10,84.81,7.11a198.32,198.32,0,0,0,69.58-21.23c13.91-7.27,26.45-15.84,24.52-32.53"/><path class="cls-6" d="M618.5,978.52a299,299,0,0,0-11,30.18c-1.65,5.43-3.17,11-3,16.67.49,13.27,15.25,22.88,24.91,10.61a66.87,66.87,0,0,0,10-17.8c3.54-9.44-3.94-3.94-10.25-6.84-7.27-3.34-7.09-5.94-4-12.75,4-8.78,8.68-14.5,8.11-24.59-.15-2.79-.94-6-3.51-7.12a5.65,5.65,0,0,0-5.83,1.43,15.85,15.85,0,0,0-3.34,5.35q-1.08,2.42-2.12,4.86"/><path class="cls-35" d="M667.74,666.34l25.68,2.49a161.1,161.1,0,0,0,2.32-22.91c7.46-1.29,16.24-3.74,18.8-11.71a26.47,26.47,0,0,0,.86-7.92l.3-33.15c0-3.82,0-7.76-1.23-11.31-2.24-6.23-8-9.94-13.55-12.29-14.29-6-31-5.77-44.18,2.68a24.47,24.47,0,0,0-8.87,9.08c-3.13,6.06-2.75,13.56-2.27,20.56q.64,9.71,1.31,19.4c.5,7.43,1.58,16,7.23,19.93,3,2.09,6.88,2.48,9.46,5.19,4.56,4.76,2.46,13.23,4.14,20"/><path class="cls-6" d="M702.81,581.25a10.79,10.79,0,0,1,.9,1.88c1.25,3.41.52,7.3,1.74,10.72,1.94,5.42,8.36,8.59,9.42,14.24.87,4.63-2.22,9.1-2.41,13.81-.2,5.14,3.18,9.94,2.76,15-.37,4.41-3.05,10.65-5.62,14.22.8-1.1,8.18-.85,10.07-2,2.9-1.84,3.21-3,4-6s.08-6,1.38-9.15c1.59-3.84,4.93-6.7,6-10.78,1.53-5.57-1.53-11.37-1.4-17.15.2-8.74,7.6-17.11,4.71-25.36-1.69-4.84-6.48-7.87-9.22-12.21-2.08-3.3-2.89-7.21-4.36-10.82s-3.94-7.2-7.69-8.24c-2.09-.57-4.32-.28-6.45-.64-3.69-.62-6.79-3.1-10.36-4.24-5.09-1.62-14,3.66-16.83,8s-1.31,7.92,1.76,11.63c5.11,6.19,17.26,10.09,21.52,17.15"/><path class="cls-6" d="M630.06,557.36c-3,2.29-6.72,4-9.44,6.62-5.32,5.17-6.21,13.31-6.27,20.73-.05,6.6-2.84,12.52-2,19.39.56,4.61,2.61,9.25,6.42,11.92,4.74,3.31,12.11,3.74,14.29,9.09,2.38,5.83-3.56,13.32.21,18.34,2.08,2.78,6.08,3.12,9,4.95,3.28,2.05,5,5.78,7.06,9.07s5.08,6.56,8.95,6.57c.05-5.88.14-10.55-2.47-15.88-1.52-3.11-5.93-8.82-2.68-12.27,2-2.86,7-3.86,7-7.37,0-1.65-1.14-3-2.07-4.39a20.2,20.2,0,0,1-1.82-18.32,26.27,26.27,0,0,1,12.79-13.66c6.67-3.38,5.56-5,7.4-11.48,1.69-6,5-7.41,10.33-9.67,4.76-2,6.28-3.26,8-7.77,1.24-3.31,2.76-7.27.82-10.9-1.54-2.88-4.26-4.91-6.9-6.85-5.51-4.05-11.69-8.29-18.5-7.68-3.78.34-7.31,2.18-11.09,2.46-2.52.19-5.05-.32-7.58-.36a20.09,20.09,0,0,0-12.28,4c-3.48,2.65-3.33,5.36-5.22,9.07a13.12,13.12,0,0,1-3.94,4.44"/><path class="cls-6" d="M644.89,532.9c.59-4.11.07-9.44-3.87-10.76-2.16-.72-4.55.16-6.78-.26-4.77-.88-6.49-6.6-9.06-10.72a3.57,3.57,0,0,0-1.51-1.52c-.95-.41-2,0-3.06.13-4.72.66-8.39-3.94-12.88-5.55-5.54-2-12.42,1.57-14,7.26-.64,2.33-.47,4.83-1.07,7.18-2.43,9.51-16.22,13.78-16.39,23.6-.12,6.63,6.48,12.86,4.06,19-1.54,4-6.54,6.72-5.89,10.91.42,2.7,3.34,4.49,6.06,4.4s5.21-1.63,7.23-3.46c3.21-2.91,5.61-6.61,8.66-9.68s7.16-5.59,11.46-5.13,8,3.62,12.12,2.85c3.3-.61,5.7-3.61,8.94-4.5,3-.83,6.21.31,9.35.44s7-1.57,7-4.7a7.84,7.84,0,0,1,0-2.27c.63-2,4.09-2,4.71-4-1.68-2.5-4-1.55-5.21-4.82-.95-2.53-.25-5.84.12-8.42"/><path class="cls-7" d="M691,658c11.95-1.59,24.08-3.75,34.09.61,8.48,3.7,8.33,14.4,10.23,22.49,6.27,26.78,11,53.88,14.68,81.13,1.76,13,4.81,27,4.73,40.13-.06,10.56-2.7,20.82-1.89,31.58.63,8.27,4.14,17.19,11.71,20.57,3.81,1.7,8.19,1.78,12,3.46s7.09,6.18,5.17,9.89c-.92,1.76-2.74,2.82-4.48,3.78l-28.32,15.8c-7.21,4-14.46,8.06-22.23,10.85-11,3.95-22.78,5.3-34.47,5.89a283.51,283.51,0,0,1-89.71-9.84c-15.68-4.33-30.83-12-27-29.74,3.92-18.26,11.49-36.48,19.65-53.2,9.89-20.24,12.82-44.63,19.82-66,7.1-21.65,14.6-43.16,22.16-64.64l.09-.25c2.76-7.85,3.89-15.62,10-22,8.33-8.71,12.34-1.78,21.8,0,6.87,1.29,14.41.51,22-.51"/><path class="cls-35" d="M720.31,989.39l8.16.44c2.95.15,6.25.2,8.45-1.78,2.68-2.41,2.38-7,.21-9.86s-5.68-4.42-9.12-5.53c-8.3-2.66-17.08-3.48-25.79-3.82a6.26,6.26,0,0,0-2.59.27,5.36,5.36,0,0,0-2.69,3.5c-4.94,15,12.8,16.21,23.37,16.78"/><path class="cls-35" d="M615.65,1014.94a6.55,6.55,0,0,0,.23,3.6,4.72,4.72,0,0,0,1.82,1.89c5.61,3.58,13.15-.27,17.45-5.35s7.2-11.51,12.68-15.28c12.53-8.64,1.06-24.45-12.05-20.82-15.29,4.23-18.5,22.6-20.13,36"/><path class="cls-6" d="M784.59,933.52c10.83-8,21.69-17,25.64-30.37s-1.63-32.33-15.59-40c-17-9.42-33.76,2.15-45.91,13.08-24.87,22.36-52,42.13-78.49,62.59-9,6.91-40,32.36-40,32.36-.86,3.59,15.85,36,20.28,34.85,48.34-12.78,95.37-44,134.1-72.46"/><path class="cls-6" d="M541.24,948.93c-10.6-5.16-21.27-11.37-25.46-23.76s.58-32.79,13.71-44.15c16-13.84,32.37-6.59,44.32,1.21,24.48,15.94,51,28.72,77,42.33,8.78,4.6,39.29,22,39.29,22C691,950,676,986.78,671.76,986.74c-46.65-.27-92.6-19.34-130.52-37.81"/><path class="cls-6" d="M702.08,995.94A302.19,302.19,0,0,0,732,1008.56c5.39,1.94,11,3.75,16.68,3.82,13.42.16,23.86-14.27,11.95-24.62a67.3,67.3,0,0,0-17.48-11c-9.36-4-4.17,3.78-7.42,10-3.73,7.17-6.34,6.87-13.07,3.41-8.66-4.45-14.2-9.48-24.42-9.41-2.82,0-6.13.65-7.36,3.19a5.72,5.72,0,0,0,1.15,6,16.07,16.07,0,0,0,5.24,3.64c1.59.8,3.19,1.6,4.8,2.38"/><path class="cls-35" d="M842,817.25a6.83,6.83,0,0,1-.28-1.93c.3-5.91,4-8.82,5.91-14.4.85-2.49-3.35-7.8,2-9.14,5.52-1.39,16.22-.45,19.95-5.51,1.66-2.24,3.69-5.18,6.39-4.51a5.37,5.37,0,0,1,2.37,1.54c22.62,21.87.63,48.22-24,47.4-2.09-.07-3.51-.11-5.21-1.09-2.77-1.58-4-4.44-5.27-7.23a27.75,27.75,0,0,1-1.83-5.13"/><path class="cls-7" d="M885.33,821.19c5.6,2.35,12.48,0,16.32-4.73s4.91-11.24,3.92-17.23-3.85-11.52-7.17-16.6c-3.93-6-8.89-11.82-15.61-14.38A35.25,35.25,0,0,0,871,766.4c-2.7-.06-5.7.1-7.65,2a10,10,0,0,0-2.37,5.22c-2.71,12.31-.58,14.11,7.48,22.29,7.16,7.26,12.4,16.23,16.91,25.3"/><path class="cls-10" d="M514,686.35v-18.9S615.35,658,676.32,698.63Z"/><path class="cls-7" d="M493.21,684.34l13.57-10.47S589.69,658,676.32,698.63V924s-58.74-42.24-183.11-25.65Z"/><path class="cls-10" d="M838.67,686.35v-18.9S737.29,658,676.32,698.63Z"/><path class="cls-7" d="M859.44,684.34l-13.58-10.47S763,658,676.32,698.63V924s58.74-42.24,183.12-25.65Z"/><path class="cls-8" d="M676.34,698.52c9.44-.52,16.63-2.76,17-5.49,0,0,.07-.11.16-.17l-.14-.06.49-.12c2.68-1.2,15.35-3.74,19.2-4.56l.81-.18.15,0a289.51,289.51,0,0,1,32.61-6.16c41.63-6.52,72.17-5.36,89.36-2.84A91.87,91.87,0,0,1,854.65,683a22.06,22.06,0,0,1,3.09,1.31h0a12.85,12.85,0,0,1,5.12,4.67c1.78,2.89,1.87,5.71,1.87,9V897c0,5.61-4.65,11.18-10.17,10.17a322.2,322.2,0,0,0-83-4.55A345.68,345.68,0,0,0,705,913.59c-7.07,1.92-15.93,3.43-22.43,6.93a7.22,7.22,0,0,1-2,.71,7.19,7.19,0,0,1-3-.05c-.51-.19-1-.38-1.59-.56a7.14,7.14,0,0,1-3.95-6.39V703.37c0-1.69,1.48-3.32,4.23-4.85"/><path class="cls-8" d="M676.37,698.52c-9.45-.52-16.63-2.76-17-5.49,0,0-.06-.11-.16-.17l.15-.06-.49-.12c-2.68-1.2-15.35-3.74-19.2-4.56l-.81-.18-.16,0a288.92,288.92,0,0,0-32.6-6.16c-41.63-6.52-72.18-5.36-89.37-2.84A91.92,91.92,0,0,0,498.06,683a22.06,22.06,0,0,0-3.09,1.31h0a12.89,12.89,0,0,0-5.11,4.67c-1.78,2.89-1.87,5.71-1.87,9V897c0,5.61,4.64,11.18,10.17,10.17a322.2,322.2,0,0,1,83-4.55,345.45,345.45,0,0,1,66.55,10.93c7.08,1.92,15.94,3.43,22.44,6.93a7.22,7.22,0,0,0,2,.71,6.85,6.85,0,0,0,1.37.13,6.92,6.92,0,0,0,1.59-.18c.51-.19,1-.38,1.58-.56a7.13,7.13,0,0,0,4-6.39V703.37c0-1.69-1.48-3.32-4.23-4.85"/><g class="cls-36"><g class="cls-37"><path class="cls-16" d="M659.28,732.9S639.06,864.48,514,904.68h0a323.17,323.17,0,0,1,67.14-2,345.45,345.45,0,0,1,66.55,10.93c7.08,1.93,15.94,3.43,22.43,6.93a7.4,7.4,0,0,0,2,.71,6.85,6.85,0,0,0,1.37.13,6.92,6.92,0,0,0,1.59-.18l1.58-.57a7.1,7.1,0,0,0,4-6.38V732.9Z"/></g></g><path class="cls-9" d="M676.4,698.09c-9.45,0-17.12-2.69-17.07-5.29l-.05,225.37c0,3.23,7.67,5.85,17.12,5.85s17.13-2.62,17.13-5.85V692.86c-.83,3-7.66,5.23-17.12,5.23"/><g class="cls-38"><g class="cls-39"><path class="cls-16" d="M862.87,689a12.89,12.89,0,0,0-5.11-4.67h0a22.06,22.06,0,0,0-3.09-1.31A91.87,91.87,0,0,0,836,678.9c-17.19-2.52-47.73-3.68-89.36,2.84A289.51,289.51,0,0,0,714,687.9l-.15,0-.81.18c-3.85.82-16.52,3.36-19.2,4.55l-.49.13.14.06c-.09.06-.15.12-.16.17a1.58,1.58,0,0,1-.19.58c-1.68,2.59-8.12,4.48-16.77,4.48-9.06,0-16.48-2.47-17-5a.29.29,0,0,0,0-.09h0a1.85,1.85,0,0,1,0-.23V693a.5.5,0,0,0-.15-.13l.15-.06-.49-.13c-2.68-1.19-15.35-3.73-19.2-4.55l-.81-.18-.16,0a288.92,288.92,0,0,0-32.6-6.16c-41.63-6.52-72.18-5.36-89.37-2.84A91.92,91.92,0,0,0,498.06,683a22.06,22.06,0,0,0-3.09,1.31h0a12.83,12.83,0,0,0-5.11,4.67c-1.78,2.89-1.87,5.71-1.87,9v3.74c0-3.26.09-6.08,1.87-9a12.69,12.69,0,0,1,5.11-4.67h0a22.06,22.06,0,0,1,3.09-1.31,92.6,92.6,0,0,1,18.64-4.13c17.19-2.51,47.74-3.68,89.37,2.84a289,289,0,0,1,32.6,6.17l.16,0,.81.18c3.85.83,16.52,3.36,19.2,4.56l.49.12a1.77,1.77,0,0,0,0,.23h0a.29.29,0,0,1,0,.09c.56,2.5,8,5,17,5,8.65,0,15.09-1.89,16.77-4.48a1.58,1.58,0,0,0,.19-.58s.07-.11.16-.17l-.14-.06.49-.12c2.68-1.2,15.35-3.73,19.2-4.56l.81-.18.15,0a289.54,289.54,0,0,1,32.61-6.17c41.63-6.52,72.17-5.35,89.36-2.84a92.54,92.54,0,0,1,18.65,4.13,22.06,22.06,0,0,1,3.09,1.31h0a12.75,12.75,0,0,1,5.11,4.67c1.78,2.88,1.87,5.7,1.87,9V698c0-3.26-.09-6.08-1.87-9"/></g></g><g class="cls-36"><g class="cls-40"><path class="cls-16" d="M659.33,692.8l-.05,225.37c0,2.72,5.45,5,12.83,5.66V697.9c-7.38-.65-12.82-2.91-12.78-5.1"/></g></g><path class="cls-9" d="M833.92,703.76c-16.56-2.43-46-3.55-86.08,2.73-7.62,1-20.9,3.73-27.8,5.18a5.59,5.59,0,0,0-4.44,5.47v45.52a5.6,5.6,0,0,0,6.8,5.46c16.29-3.55,33.8-8.51,54-9.73,17.26-1,34.36-1.56,60.26,2A5.6,5.6,0,0,0,843,754.8V709.91a5.58,5.58,0,0,0-4.67-5.52c-1.45-.24-2.92-.45-4.39-.63"/><path class="cls-35" d="M519.79,795.52a6.84,6.84,0,0,0,.28-1.94c-.3-5.91-4-8.81-5.91-14.39-.85-2.5,3.35-7.81-2-9.15-5.52-1.38-16.21-.45-19.95-5.51-1.66-2.23-3.69-5.17-6.39-4.5a5.43,5.43,0,0,0-2.37,1.53c-22.62,21.88-.63,48.23,24,47.41,2.09-.07,3.51-.11,5.21-1.09,2.77-1.59,4-4.44,5.27-7.23a27,27,0,0,0,1.83-5.13"/><path class="cls-7" d="M476.45,799.46c-5.6,2.34-12.48,0-16.32-4.73s-4.91-11.25-3.92-17.24,3.85-11.51,7.17-16.6c3.94-6,8.89-11.81,15.61-14.38a35.54,35.54,0,0,1,11.83-1.84c2.7-.06,5.7.1,7.65,2a10,10,0,0,1,2.37,5.22c2.71,12.31.58,14.1-7.48,22.29-7.16,7.26-12.4,16.23-16.91,25.3"/></g></svg>